ISO-10303-21;
HEADER;
/* Generated by software containing ST-Developer
 * from STEP Tools, Inc. (www.steptools.com) 
 */

FILE_DESCRIPTION(
/* description */ (''),
/* implementation_level */ '2;1');

FILE_NAME(
/* name */ '3D Filament Swatch-60103-PC-Transparent.step',
/* time_stamp */ '2026-05-11T22:26:45+02:00',
/* author */ (''),
/* organization */ (''),
/* preprocessor_version */ 'ST-DEVELOPER v20.1',
/* originating_system */ 'Autodesk Translation Framework v15.8.0.0',
/* authorisation */ '');

FILE_SCHEMA (('AUTOMOTIVE_DESIGN { 1 0 10303 214 3 1 1 }'));
ENDSEC;

DATA;
#10=MECHANICAL_DESIGN_GEOMETRIC_PRESENTATION_REPRESENTATION('',(#13),#1304);
#11=SHAPE_REPRESENTATION_RELATIONSHIP('SRR','None',#1311,#12);
#12=ADVANCED_BREP_SHAPE_REPRESENTATION('',(#14),#1303);
#13=STYLED_ITEM('',(#1320),#14);
#14=MANIFOLD_SOLID_BREP('Body',#816);
#15=CIRCLE('',#864,2.5);
#16=CIRCLE('',#865,2.5);
#17=CIRCLE('',#867,2.5);
#18=CIRCLE('',#868,2.5);
#19=CYLINDRICAL_SURFACE('',#863,2.5);
#20=CYLINDRICAL_SURFACE('',#866,2.5);
#21=FACE_BOUND('',#100,.T.);
#22=FACE_BOUND('',#109,.T.);
#23=FACE_BOUND('',#110,.T.);
#24=FACE_BOUND('',#111,.T.);
#25=FACE_BOUND('',#113,.T.);
#26=FACE_BOUND('',#114,.T.);
#27=FACE_OUTER_BOUND('',#68,.T.);
#28=FACE_OUTER_BOUND('',#69,.T.);
#29=FACE_OUTER_BOUND('',#70,.T.);
#30=FACE_OUTER_BOUND('',#71,.T.);
#31=FACE_OUTER_BOUND('',#72,.T.);
#32=FACE_OUTER_BOUND('',#73,.T.);
#33=FACE_OUTER_BOUND('',#74,.T.);
#34=FACE_OUTER_BOUND('',#75,.T.);
#35=FACE_OUTER_BOUND('',#76,.T.);
#36=FACE_OUTER_BOUND('',#77,.T.);
#37=FACE_OUTER_BOUND('',#78,.T.);
#38=FACE_OUTER_BOUND('',#79,.T.);
#39=FACE_OUTER_BOUND('',#80,.T.);
#40=FACE_OUTER_BOUND('',#81,.T.);
#41=FACE_OUTER_BOUND('',#82,.T.);
#42=FACE_OUTER_BOUND('',#83,.T.);
#43=FACE_OUTER_BOUND('',#84,.T.);
#44=FACE_OUTER_BOUND('',#85,.T.);
#45=FACE_OUTER_BOUND('',#86,.T.);
#46=FACE_OUTER_BOUND('',#87,.T.);
#47=FACE_OUTER_BOUND('',#88,.T.);
#48=FACE_OUTER_BOUND('',#89,.T.);
#49=FACE_OUTER_BOUND('',#90,.T.);
#50=FACE_OUTER_BOUND('',#91,.T.);
#51=FACE_OUTER_BOUND('',#92,.T.);
#52=FACE_OUTER_BOUND('',#93,.T.);
#53=FACE_OUTER_BOUND('',#94,.T.);
#54=FACE_OUTER_BOUND('',#95,.T.);
#55=FACE_OUTER_BOUND('',#96,.T.);
#56=FACE_OUTER_BOUND('',#97,.T.);
#57=FACE_OUTER_BOUND('',#98,.T.);
#58=FACE_OUTER_BOUND('',#99,.T.);
#59=FACE_OUTER_BOUND('',#101,.T.);
#60=FACE_OUTER_BOUND('',#102,.T.);
#61=FACE_OUTER_BOUND('',#103,.T.);
#62=FACE_OUTER_BOUND('',#104,.T.);
#63=FACE_OUTER_BOUND('',#105,.T.);
#64=FACE_OUTER_BOUND('',#106,.T.);
#65=FACE_OUTER_BOUND('',#107,.T.);
#66=FACE_OUTER_BOUND('',#108,.T.);
#67=FACE_OUTER_BOUND('',#112,.T.);
#68=EDGE_LOOP('',(#514,#515,#516,#517));
#69=EDGE_LOOP('',(#518,#519,#520,#521));
#70=EDGE_LOOP('',(#522,#523,#524,#525));
#71=EDGE_LOOP('',(#526,#527,#528,#529));
#72=EDGE_LOOP('',(#530,#531,#532,#533));
#73=EDGE_LOOP('',(#534,#535,#536,#537));
#74=EDGE_LOOP('',(#538,#539,#540,#541));
#75=EDGE_LOOP('',(#542,#543,#544,#545));
#76=EDGE_LOOP('',(#546,#547,#548,#549));
#77=EDGE_LOOP('',(#550,#551,#552,#553));
#78=EDGE_LOOP('',(#554,#555,#556,#557,#558,#559,#560,#561,#562,#563));
#79=EDGE_LOOP('',(#564,#565,#566,#567));
#80=EDGE_LOOP('',(#568,#569,#570,#571));
#81=EDGE_LOOP('',(#572,#573,#574,#575));
#82=EDGE_LOOP('',(#576,#577,#578,#579));
#83=EDGE_LOOP('',(#580,#581,#582,#583));
#84=EDGE_LOOP('',(#584,#585,#586,#587));
#85=EDGE_LOOP('',(#588,#589,#590,#591));
#86=EDGE_LOOP('',(#592,#593,#594,#595));
#87=EDGE_LOOP('',(#596,#597,#598,#599));
#88=EDGE_LOOP('',(#600,#601,#602,#603));
#89=EDGE_LOOP('',(#604,#605,#606,#607));
#90=EDGE_LOOP('',(#608,#609,#610,#611));
#91=EDGE_LOOP('',(#612,#613,#614,#615,#616,#617,#618,#619,#620,#621,#622,
#623));
#92=EDGE_LOOP('',(#624,#625,#626,#627));
#93=EDGE_LOOP('',(#628,#629,#630,#631));
#94=EDGE_LOOP('',(#632,#633,#634,#635));
#95=EDGE_LOOP('',(#636,#637,#638,#639));
#96=EDGE_LOOP('',(#640,#641,#642,#643));
#97=EDGE_LOOP('',(#644,#645,#646,#647,#648,#649));
#98=EDGE_LOOP('',(#650,#651,#652,#653));
#99=EDGE_LOOP('',(#654,#655,#656,#657));
#100=EDGE_LOOP('',(#658,#659,#660,#661));
#101=EDGE_LOOP('',(#662,#663,#664,#665));
#102=EDGE_LOOP('',(#666,#667,#668,#669));
#103=EDGE_LOOP('',(#670,#671,#672,#673));
#104=EDGE_LOOP('',(#674,#675,#676,#677,#678,#679,#680,#681));
#105=EDGE_LOOP('',(#682,#683,#684,#685,#686,#687,#688,#689,#690,#691));
#106=EDGE_LOOP('',(#692,#693,#694,#695));
#107=EDGE_LOOP('',(#696,#697,#698,#699,#700,#701,#702,#703));
#108=EDGE_LOOP('',(#704,#705,#706,#707,#708,#709));
#109=EDGE_LOOP('',(#710,#711,#712,#713,#714,#715,#716,#717,#718,#719));
#110=EDGE_LOOP('',(#720));
#111=EDGE_LOOP('',(#721));
#112=EDGE_LOOP('',(#722,#723,#724,#725,#726,#727,#728,#729,#730,#731,#732,
#733));
#113=EDGE_LOOP('',(#734));
#114=EDGE_LOOP('',(#735));
#115=LINE('',#1078,#222);
#116=LINE('',#1080,#223);
#117=LINE('',#1082,#224);
#118=LINE('',#1083,#225);
#119=LINE('',#1086,#226);
#120=LINE('',#1088,#227);
#121=LINE('',#1089,#228);
#122=LINE('',#1092,#229);
#123=LINE('',#1094,#230);
#124=LINE('',#1095,#231);
#125=LINE('',#1098,#232);
#126=LINE('',#1100,#233);
#127=LINE('',#1101,#234);
#128=LINE('',#1104,#235);
#129=LINE('',#1106,#236);
#130=LINE('',#1107,#237);
#131=LINE('',#1110,#238);
#132=LINE('',#1112,#239);
#133=LINE('',#1113,#240);
#134=LINE('',#1116,#241);
#135=LINE('',#1118,#242);
#136=LINE('',#1119,#243);
#137=LINE('',#1122,#244);
#138=LINE('',#1124,#245);
#139=LINE('',#1125,#246);
#140=LINE('',#1128,#247);
#141=LINE('',#1130,#248);
#142=LINE('',#1131,#249);
#143=LINE('',#1133,#250);
#144=LINE('',#1134,#251);
#145=LINE('',#1139,#252);
#146=LINE('',#1141,#253);
#147=LINE('',#1143,#254);
#148=LINE('',#1144,#255);
#149=LINE('',#1147,#256);
#150=LINE('',#1149,#257);
#151=LINE('',#1150,#258);
#152=LINE('',#1153,#259);
#153=LINE('',#1155,#260);
#154=LINE('',#1156,#261);
#155=LINE('',#1158,#262);
#156=LINE('',#1159,#263);
#157=LINE('',#1164,#264);
#158=LINE('',#1166,#265);
#159=LINE('',#1168,#266);
#160=LINE('',#1169,#267);
#161=LINE('',#1172,#268);
#162=LINE('',#1174,#269);
#163=LINE('',#1175,#270);
#164=LINE('',#1178,#271);
#165=LINE('',#1179,#272);
#166=LINE('',#1183,#273);
#167=LINE('',#1185,#274);
#168=LINE('',#1187,#275);
#169=LINE('',#1188,#276);
#170=LINE('',#1191,#277);
#171=LINE('',#1193,#278);
#172=LINE('',#1194,#279);
#173=LINE('',#1197,#280);
#174=LINE('',#1199,#281);
#175=LINE('',#1200,#282);
#176=LINE('',#1202,#283);
#177=LINE('',#1204,#284);
#178=LINE('',#1206,#285);
#179=LINE('',#1208,#286);
#180=LINE('',#1210,#287);
#181=LINE('',#1212,#288);
#182=LINE('',#1214,#289);
#183=LINE('',#1215,#290);
#184=LINE('',#1218,#291);
#185=LINE('',#1220,#292);
#186=LINE('',#1221,#293);
#187=LINE('',#1224,#294);
#188=LINE('',#1226,#295);
#189=LINE('',#1227,#296);
#190=LINE('',#1229,#297);
#191=LINE('',#1233,#298);
#192=LINE('',#1235,#299);
#193=LINE('',#1237,#300);
#194=LINE('',#1238,#301);
#195=LINE('',#1241,#302);
#196=LINE('',#1243,#303);
#197=LINE('',#1244,#304);
#198=LINE('',#1248,#305);
#199=LINE('',#1249,#306);
#200=LINE('',#1251,#307);
#201=LINE('',#1252,#308);
#202=LINE('',#1255,#309);
#203=LINE('',#1256,#310);
#204=LINE('',#1260,#311);
#205=LINE('',#1262,#312);
#206=LINE('',#1264,#313);
#207=LINE('',#1265,#314);
#208=LINE('',#1268,#315);
#209=LINE('',#1270,#316);
#210=LINE('',#1271,#317);
#211=LINE('',#1276,#318);
#212=LINE('',#1282,#319);
#213=LINE('',#1285,#320);
#214=LINE('',#1287,#321);
#215=LINE('',#1288,#322);
#216=LINE('',#1290,#323);
#217=LINE('',#1292,#324);
#218=LINE('',#1293,#325);
#219=LINE('',#1294,#326);
#220=LINE('',#1296,#327);
#221=LINE('',#1298,#328);
#222=VECTOR('',#879,10.);
#223=VECTOR('',#880,10.);
#224=VECTOR('',#881,10.);
#225=VECTOR('',#882,10.);
#226=VECTOR('',#885,10.);
#227=VECTOR('',#886,10.);
#228=VECTOR('',#887,10.);
#229=VECTOR('',#890,10.);
#230=VECTOR('',#891,10.);
#231=VECTOR('',#892,10.);
#232=VECTOR('',#895,10.);
#233=VECTOR('',#896,10.);
#234=VECTOR('',#897,10.);
#235=VECTOR('',#900,10.);
#236=VECTOR('',#901,10.);
#237=VECTOR('',#902,10.);
#238=VECTOR('',#905,10.);
#239=VECTOR('',#906,10.);
#240=VECTOR('',#907,10.);
#241=VECTOR('',#910,10.);
#242=VECTOR('',#911,10.);
#243=VECTOR('',#912,10.);
#244=VECTOR('',#915,10.);
#245=VECTOR('',#916,10.);
#246=VECTOR('',#917,10.);
#247=VECTOR('',#920,10.);
#248=VECTOR('',#921,10.);
#249=VECTOR('',#922,10.);
#250=VECTOR('',#925,10.);
#251=VECTOR('',#926,10.);
#252=VECTOR('',#931,10.);
#253=VECTOR('',#932,10.);
#254=VECTOR('',#933,10.);
#255=VECTOR('',#934,10.);
#256=VECTOR('',#937,10.);
#257=VECTOR('',#938,10.);
#258=VECTOR('',#939,10.);
#259=VECTOR('',#942,10.);
#260=VECTOR('',#943,10.);
#261=VECTOR('',#944,10.);
#262=VECTOR('',#947,10.);
#263=VECTOR('',#948,10.);
#264=VECTOR('',#953,10.);
#265=VECTOR('',#954,10.);
#266=VECTOR('',#955,10.);
#267=VECTOR('',#956,10.);
#268=VECTOR('',#959,10.);
#269=VECTOR('',#960,10.);
#270=VECTOR('',#961,10.);
#271=VECTOR('',#964,10.);
#272=VECTOR('',#965,10.);
#273=VECTOR('',#968,10.);
#274=VECTOR('',#969,10.);
#275=VECTOR('',#970,10.);
#276=VECTOR('',#971,10.);
#277=VECTOR('',#974,10.);
#278=VECTOR('',#975,10.);
#279=VECTOR('',#976,10.);
#280=VECTOR('',#979,10.);
#281=VECTOR('',#980,10.);
#282=VECTOR('',#981,10.);
#283=VECTOR('',#984,10.);
#284=VECTOR('',#987,10.);
#285=VECTOR('',#988,10.);
#286=VECTOR('',#989,10.);
#287=VECTOR('',#990,10.);
#288=VECTOR('',#991,10.);
#289=VECTOR('',#992,10.);
#290=VECTOR('',#993,10.);
#291=VECTOR('',#996,10.);
#292=VECTOR('',#997,10.);
#293=VECTOR('',#998,10.);
#294=VECTOR('',#1001,10.);
#295=VECTOR('',#1002,10.);
#296=VECTOR('',#1003,10.);
#297=VECTOR('',#1006,10.);
#298=VECTOR('',#1009,10.);
#299=VECTOR('',#1010,10.);
#300=VECTOR('',#1011,10.);
#301=VECTOR('',#1012,10.);
#302=VECTOR('',#1015,10.);
#303=VECTOR('',#1016,10.);
#304=VECTOR('',#1017,10.);
#305=VECTOR('',#1020,10.);
#306=VECTOR('',#1021,10.);
#307=VECTOR('',#1022,10.);
#308=VECTOR('',#1023,10.);
#309=VECTOR('',#1026,10.);
#310=VECTOR('',#1027,10.);
#311=VECTOR('',#1030,10.);
#312=VECTOR('',#1031,10.);
#313=VECTOR('',#1032,10.);
#314=VECTOR('',#1033,10.);
#315=VECTOR('',#1036,10.);
#316=VECTOR('',#1037,10.);
#317=VECTOR('',#1038,10.);
#318=VECTOR('',#1043,2.5);
#319=VECTOR('',#1050,2.5);
#320=VECTOR('',#1055,10.);
#321=VECTOR('',#1056,10.);
#322=VECTOR('',#1057,10.);
#323=VECTOR('',#1060,10.);
#324=VECTOR('',#1061,10.);
#325=VECTOR('',#1062,10.);
#326=VECTOR('',#1063,10.);
#327=VECTOR('',#1066,10.);
#328=VECTOR('',#1069,10.);
#329=VERTEX_POINT('',#1076);
#330=VERTEX_POINT('',#1077);
#331=VERTEX_POINT('',#1079);
#332=VERTEX_POINT('',#1081);
#333=VERTEX_POINT('',#1085);
#334=VERTEX_POINT('',#1087);
#335=VERTEX_POINT('',#1091);
#336=VERTEX_POINT('',#1093);
#337=VERTEX_POINT('',#1097);
#338=VERTEX_POINT('',#1099);
#339=VERTEX_POINT('',#1103);
#340=VERTEX_POINT('',#1105);
#341=VERTEX_POINT('',#1109);
#342=VERTEX_POINT('',#1111);
#343=VERTEX_POINT('',#1115);
#344=VERTEX_POINT('',#1117);
#345=VERTEX_POINT('',#1121);
#346=VERTEX_POINT('',#1123);
#347=VERTEX_POINT('',#1127);
#348=VERTEX_POINT('',#1129);
#349=VERTEX_POINT('',#1137);
#350=VERTEX_POINT('',#1138);
#351=VERTEX_POINT('',#1140);
#352=VERTEX_POINT('',#1142);
#353=VERTEX_POINT('',#1146);
#354=VERTEX_POINT('',#1148);
#355=VERTEX_POINT('',#1152);
#356=VERTEX_POINT('',#1154);
#357=VERTEX_POINT('',#1162);
#358=VERTEX_POINT('',#1163);
#359=VERTEX_POINT('',#1165);
#360=VERTEX_POINT('',#1167);
#361=VERTEX_POINT('',#1171);
#362=VERTEX_POINT('',#1173);
#363=VERTEX_POINT('',#1177);
#364=VERTEX_POINT('',#1181);
#365=VERTEX_POINT('',#1182);
#366=VERTEX_POINT('',#1184);
#367=VERTEX_POINT('',#1186);
#368=VERTEX_POINT('',#1190);
#369=VERTEX_POINT('',#1192);
#370=VERTEX_POINT('',#1196);
#371=VERTEX_POINT('',#1198);
#372=VERTEX_POINT('',#1205);
#373=VERTEX_POINT('',#1207);
#374=VERTEX_POINT('',#1209);
#375=VERTEX_POINT('',#1211);
#376=VERTEX_POINT('',#1213);
#377=VERTEX_POINT('',#1217);
#378=VERTEX_POINT('',#1219);
#379=VERTEX_POINT('',#1223);
#380=VERTEX_POINT('',#1225);
#381=VERTEX_POINT('',#1231);
#382=VERTEX_POINT('',#1232);
#383=VERTEX_POINT('',#1234);
#384=VERTEX_POINT('',#1236);
#385=VERTEX_POINT('',#1240);
#386=VERTEX_POINT('',#1242);
#387=VERTEX_POINT('',#1246);
#388=VERTEX_POINT('',#1247);
#389=VERTEX_POINT('',#1250);
#390=VERTEX_POINT('',#1254);
#391=VERTEX_POINT('',#1258);
#392=VERTEX_POINT('',#1259);
#393=VERTEX_POINT('',#1261);
#394=VERTEX_POINT('',#1263);
#395=VERTEX_POINT('',#1267);
#396=VERTEX_POINT('',#1269);
#397=VERTEX_POINT('',#1273);
#398=VERTEX_POINT('',#1275);
#399=VERTEX_POINT('',#1279);
#400=VERTEX_POINT('',#1281);
#401=VERTEX_POINT('',#1286);
#402=VERTEX_POINT('',#1291);
#403=EDGE_CURVE('',#329,#330,#115,.T.);
#404=EDGE_CURVE('',#329,#331,#116,.T.);
#405=EDGE_CURVE('',#331,#332,#117,.T.);
#406=EDGE_CURVE('',#330,#332,#118,.T.);
#407=EDGE_CURVE('',#333,#329,#119,.T.);
#408=EDGE_CURVE('',#333,#334,#120,.T.);
#409=EDGE_CURVE('',#334,#331,#121,.T.);
#410=EDGE_CURVE('',#335,#333,#122,.T.);
#411=EDGE_CURVE('',#335,#336,#123,.T.);
#412=EDGE_CURVE('',#336,#334,#124,.T.);
#413=EDGE_CURVE('',#337,#335,#125,.T.);
#414=EDGE_CURVE('',#337,#338,#126,.T.);
#415=EDGE_CURVE('',#338,#336,#127,.T.);
#416=EDGE_CURVE('',#339,#337,#128,.T.);
#417=EDGE_CURVE('',#339,#340,#129,.T.);
#418=EDGE_CURVE('',#340,#338,#130,.T.);
#419=EDGE_CURVE('',#341,#339,#131,.T.);
#420=EDGE_CURVE('',#341,#342,#132,.T.);
#421=EDGE_CURVE('',#342,#340,#133,.T.);
#422=EDGE_CURVE('',#343,#341,#134,.T.);
#423=EDGE_CURVE('',#343,#344,#135,.T.);
#424=EDGE_CURVE('',#344,#342,#136,.T.);
#425=EDGE_CURVE('',#345,#343,#137,.T.);
#426=EDGE_CURVE('',#345,#346,#138,.T.);
#427=EDGE_CURVE('',#346,#344,#139,.T.);
#428=EDGE_CURVE('',#347,#345,#140,.T.);
#429=EDGE_CURVE('',#347,#348,#141,.T.);
#430=EDGE_CURVE('',#348,#346,#142,.T.);
#431=EDGE_CURVE('',#330,#347,#143,.T.);
#432=EDGE_CURVE('',#332,#348,#144,.T.);
#433=EDGE_CURVE('',#349,#350,#145,.T.);
#434=EDGE_CURVE('',#349,#351,#146,.T.);
#435=EDGE_CURVE('',#351,#352,#147,.T.);
#436=EDGE_CURVE('',#350,#352,#148,.T.);
#437=EDGE_CURVE('',#353,#349,#149,.T.);
#438=EDGE_CURVE('',#353,#354,#150,.T.);
#439=EDGE_CURVE('',#354,#351,#151,.T.);
#440=EDGE_CURVE('',#355,#353,#152,.T.);
#441=EDGE_CURVE('',#355,#356,#153,.T.);
#442=EDGE_CURVE('',#356,#354,#154,.T.);
#443=EDGE_CURVE('',#350,#355,#155,.T.);
#444=EDGE_CURVE('',#352,#356,#156,.T.);
#445=EDGE_CURVE('',#357,#358,#157,.T.);
#446=EDGE_CURVE('',#359,#358,#158,.T.);
#447=EDGE_CURVE('',#360,#359,#159,.T.);
#448=EDGE_CURVE('',#357,#360,#160,.T.);
#449=EDGE_CURVE('',#357,#361,#161,.T.);
#450=EDGE_CURVE('',#362,#360,#162,.T.);
#451=EDGE_CURVE('',#361,#362,#163,.T.);
#452=EDGE_CURVE('',#363,#359,#164,.T.);
#453=EDGE_CURVE('',#363,#362,#165,.T.);
#454=EDGE_CURVE('',#364,#365,#166,.T.);
#455=EDGE_CURVE('',#366,#364,#167,.T.);
#456=EDGE_CURVE('',#367,#366,#168,.T.);
#457=EDGE_CURVE('',#365,#367,#169,.T.);
#458=EDGE_CURVE('',#365,#368,#170,.T.);
#459=EDGE_CURVE('',#369,#367,#171,.T.);
#460=EDGE_CURVE('',#368,#369,#172,.T.);
#461=EDGE_CURVE('',#370,#368,#173,.T.);
#462=EDGE_CURVE('',#371,#369,#174,.T.);
#463=EDGE_CURVE('',#370,#371,#175,.T.);
#464=EDGE_CURVE('',#371,#366,#176,.T.);
#465=EDGE_CURVE('',#358,#370,#177,.T.);
#466=EDGE_CURVE('',#364,#372,#178,.T.);
#467=EDGE_CURVE('',#372,#373,#179,.T.);
#468=EDGE_CURVE('',#373,#374,#180,.T.);
#469=EDGE_CURVE('',#374,#375,#181,.T.);
#470=EDGE_CURVE('',#376,#375,#182,.T.);
#471=EDGE_CURVE('',#363,#376,#183,.T.);
#472=EDGE_CURVE('',#377,#372,#184,.T.);
#473=EDGE_CURVE('',#377,#378,#185,.T.);
#474=EDGE_CURVE('',#373,#378,#186,.T.);
#475=EDGE_CURVE('',#379,#377,#187,.T.);
#476=EDGE_CURVE('',#379,#380,#188,.T.);
#477=EDGE_CURVE('',#378,#380,#189,.T.);
#478=EDGE_CURVE('',#380,#374,#190,.T.);
#479=EDGE_CURVE('',#381,#382,#191,.T.);
#480=EDGE_CURVE('',#381,#383,#192,.T.);
#481=EDGE_CURVE('',#384,#383,#193,.T.);
#482=EDGE_CURVE('',#382,#384,#194,.T.);
#483=EDGE_CURVE('',#384,#385,#195,.T.);
#484=EDGE_CURVE('',#383,#386,#196,.T.);
#485=EDGE_CURVE('',#386,#385,#197,.T.);
#486=EDGE_CURVE('',#387,#388,#198,.T.);
#487=EDGE_CURVE('',#387,#386,#199,.T.);
#488=EDGE_CURVE('',#389,#381,#200,.T.);
#489=EDGE_CURVE('',#388,#389,#201,.T.);
#490=EDGE_CURVE('',#390,#382,#202,.T.);
#491=EDGE_CURVE('',#390,#389,#203,.T.);
#492=EDGE_CURVE('',#391,#392,#204,.T.);
#493=EDGE_CURVE('',#393,#391,#205,.T.);
#494=EDGE_CURVE('',#393,#394,#206,.T.);
#495=EDGE_CURVE('',#394,#392,#207,.T.);
#496=EDGE_CURVE('',#391,#395,#208,.T.);
#497=EDGE_CURVE('',#396,#395,#209,.T.);
#498=EDGE_CURVE('',#393,#396,#210,.T.);
#499=EDGE_CURVE('',#397,#397,#15,.T.);
#500=EDGE_CURVE('',#397,#398,#211,.T.);
#501=EDGE_CURVE('',#398,#398,#16,.T.);
#502=EDGE_CURVE('',#399,#399,#17,.T.);
#503=EDGE_CURVE('',#399,#400,#212,.T.);
#504=EDGE_CURVE('',#400,#400,#18,.T.);
#505=EDGE_CURVE('',#388,#379,#213,.T.);
#506=EDGE_CURVE('',#390,#401,#214,.T.);
#507=EDGE_CURVE('',#375,#401,#215,.T.);
#508=EDGE_CURVE('',#361,#387,#216,.T.);
#509=EDGE_CURVE('',#402,#376,#217,.T.);
#510=EDGE_CURVE('',#392,#402,#218,.T.);
#511=EDGE_CURVE('',#385,#394,#219,.T.);
#512=EDGE_CURVE('',#395,#402,#220,.T.);
#513=EDGE_CURVE('',#401,#396,#221,.T.);
#514=ORIENTED_EDGE('',*,*,#403,.F.);
#515=ORIENTED_EDGE('',*,*,#404,.T.);
#516=ORIENTED_EDGE('',*,*,#405,.T.);
#517=ORIENTED_EDGE('',*,*,#406,.F.);
#518=ORIENTED_EDGE('',*,*,#407,.F.);
#519=ORIENTED_EDGE('',*,*,#408,.T.);
#520=ORIENTED_EDGE('',*,*,#409,.T.);
#521=ORIENTED_EDGE('',*,*,#404,.F.);
#522=ORIENTED_EDGE('',*,*,#410,.F.);
#523=ORIENTED_EDGE('',*,*,#411,.T.);
#524=ORIENTED_EDGE('',*,*,#412,.T.);
#525=ORIENTED_EDGE('',*,*,#408,.F.);
#526=ORIENTED_EDGE('',*,*,#413,.F.);
#527=ORIENTED_EDGE('',*,*,#414,.T.);
#528=ORIENTED_EDGE('',*,*,#415,.T.);
#529=ORIENTED_EDGE('',*,*,#411,.F.);
#530=ORIENTED_EDGE('',*,*,#416,.F.);
#531=ORIENTED_EDGE('',*,*,#417,.T.);
#532=ORIENTED_EDGE('',*,*,#418,.T.);
#533=ORIENTED_EDGE('',*,*,#414,.F.);
#534=ORIENTED_EDGE('',*,*,#419,.F.);
#535=ORIENTED_EDGE('',*,*,#420,.T.);
#536=ORIENTED_EDGE('',*,*,#421,.T.);
#537=ORIENTED_EDGE('',*,*,#417,.F.);
#538=ORIENTED_EDGE('',*,*,#422,.F.);
#539=ORIENTED_EDGE('',*,*,#423,.T.);
#540=ORIENTED_EDGE('',*,*,#424,.T.);
#541=ORIENTED_EDGE('',*,*,#420,.F.);
#542=ORIENTED_EDGE('',*,*,#425,.F.);
#543=ORIENTED_EDGE('',*,*,#426,.T.);
#544=ORIENTED_EDGE('',*,*,#427,.T.);
#545=ORIENTED_EDGE('',*,*,#423,.F.);
#546=ORIENTED_EDGE('',*,*,#428,.F.);
#547=ORIENTED_EDGE('',*,*,#429,.T.);
#548=ORIENTED_EDGE('',*,*,#430,.T.);
#549=ORIENTED_EDGE('',*,*,#426,.F.);
#550=ORIENTED_EDGE('',*,*,#431,.F.);
#551=ORIENTED_EDGE('',*,*,#406,.T.);
#552=ORIENTED_EDGE('',*,*,#432,.T.);
#553=ORIENTED_EDGE('',*,*,#429,.F.);
#554=ORIENTED_EDGE('',*,*,#432,.F.);
#555=ORIENTED_EDGE('',*,*,#405,.F.);
#556=ORIENTED_EDGE('',*,*,#409,.F.);
#557=ORIENTED_EDGE('',*,*,#412,.F.);
#558=ORIENTED_EDGE('',*,*,#415,.F.);
#559=ORIENTED_EDGE('',*,*,#418,.F.);
#560=ORIENTED_EDGE('',*,*,#421,.F.);
#561=ORIENTED_EDGE('',*,*,#424,.F.);
#562=ORIENTED_EDGE('',*,*,#427,.F.);
#563=ORIENTED_EDGE('',*,*,#430,.F.);
#564=ORIENTED_EDGE('',*,*,#433,.F.);
#565=ORIENTED_EDGE('',*,*,#434,.T.);
#566=ORIENTED_EDGE('',*,*,#435,.T.);
#567=ORIENTED_EDGE('',*,*,#436,.F.);
#568=ORIENTED_EDGE('',*,*,#437,.F.);
#569=ORIENTED_EDGE('',*,*,#438,.T.);
#570=ORIENTED_EDGE('',*,*,#439,.T.);
#571=ORIENTED_EDGE('',*,*,#434,.F.);
#572=ORIENTED_EDGE('',*,*,#440,.F.);
#573=ORIENTED_EDGE('',*,*,#441,.T.);
#574=ORIENTED_EDGE('',*,*,#442,.T.);
#575=ORIENTED_EDGE('',*,*,#438,.F.);
#576=ORIENTED_EDGE('',*,*,#443,.F.);
#577=ORIENTED_EDGE('',*,*,#436,.T.);
#578=ORIENTED_EDGE('',*,*,#444,.T.);
#579=ORIENTED_EDGE('',*,*,#441,.F.);
#580=ORIENTED_EDGE('',*,*,#444,.F.);
#581=ORIENTED_EDGE('',*,*,#435,.F.);
#582=ORIENTED_EDGE('',*,*,#439,.F.);
#583=ORIENTED_EDGE('',*,*,#442,.F.);
#584=ORIENTED_EDGE('',*,*,#445,.T.);
#585=ORIENTED_EDGE('',*,*,#446,.F.);
#586=ORIENTED_EDGE('',*,*,#447,.F.);
#587=ORIENTED_EDGE('',*,*,#448,.F.);
#588=ORIENTED_EDGE('',*,*,#449,.F.);
#589=ORIENTED_EDGE('',*,*,#448,.T.);
#590=ORIENTED_EDGE('',*,*,#450,.F.);
#591=ORIENTED_EDGE('',*,*,#451,.F.);
#592=ORIENTED_EDGE('',*,*,#450,.T.);
#593=ORIENTED_EDGE('',*,*,#447,.T.);
#594=ORIENTED_EDGE('',*,*,#452,.F.);
#595=ORIENTED_EDGE('',*,*,#453,.T.);
#596=ORIENTED_EDGE('',*,*,#454,.F.);
#597=ORIENTED_EDGE('',*,*,#455,.F.);
#598=ORIENTED_EDGE('',*,*,#456,.F.);
#599=ORIENTED_EDGE('',*,*,#457,.F.);
#600=ORIENTED_EDGE('',*,*,#458,.F.);
#601=ORIENTED_EDGE('',*,*,#457,.T.);
#602=ORIENTED_EDGE('',*,*,#459,.F.);
#603=ORIENTED_EDGE('',*,*,#460,.F.);
#604=ORIENTED_EDGE('',*,*,#461,.T.);
#605=ORIENTED_EDGE('',*,*,#460,.T.);
#606=ORIENTED_EDGE('',*,*,#462,.F.);
#607=ORIENTED_EDGE('',*,*,#463,.F.);
#608=ORIENTED_EDGE('',*,*,#462,.T.);
#609=ORIENTED_EDGE('',*,*,#459,.T.);
#610=ORIENTED_EDGE('',*,*,#456,.T.);
#611=ORIENTED_EDGE('',*,*,#464,.F.);
#612=ORIENTED_EDGE('',*,*,#446,.T.);
#613=ORIENTED_EDGE('',*,*,#465,.T.);
#614=ORIENTED_EDGE('',*,*,#463,.T.);
#615=ORIENTED_EDGE('',*,*,#464,.T.);
#616=ORIENTED_EDGE('',*,*,#455,.T.);
#617=ORIENTED_EDGE('',*,*,#466,.T.);
#618=ORIENTED_EDGE('',*,*,#467,.T.);
#619=ORIENTED_EDGE('',*,*,#468,.T.);
#620=ORIENTED_EDGE('',*,*,#469,.T.);
#621=ORIENTED_EDGE('',*,*,#470,.F.);
#622=ORIENTED_EDGE('',*,*,#471,.F.);
#623=ORIENTED_EDGE('',*,*,#452,.T.);
#624=ORIENTED_EDGE('',*,*,#472,.F.);
#625=ORIENTED_EDGE('',*,*,#473,.T.);
#626=ORIENTED_EDGE('',*,*,#474,.F.);
#627=ORIENTED_EDGE('',*,*,#467,.F.);
#628=ORIENTED_EDGE('',*,*,#475,.F.);
#629=ORIENTED_EDGE('',*,*,#476,.T.);
#630=ORIENTED_EDGE('',*,*,#477,.F.);
#631=ORIENTED_EDGE('',*,*,#473,.F.);
#632=ORIENTED_EDGE('',*,*,#477,.T.);
#633=ORIENTED_EDGE('',*,*,#478,.T.);
#634=ORIENTED_EDGE('',*,*,#468,.F.);
#635=ORIENTED_EDGE('',*,*,#474,.T.);
#636=ORIENTED_EDGE('',*,*,#479,.F.);
#637=ORIENTED_EDGE('',*,*,#480,.T.);
#638=ORIENTED_EDGE('',*,*,#481,.F.);
#639=ORIENTED_EDGE('',*,*,#482,.F.);
#640=ORIENTED_EDGE('',*,*,#483,.F.);
#641=ORIENTED_EDGE('',*,*,#481,.T.);
#642=ORIENTED_EDGE('',*,*,#484,.T.);
#643=ORIENTED_EDGE('',*,*,#485,.T.);
#644=ORIENTED_EDGE('',*,*,#486,.F.);
#645=ORIENTED_EDGE('',*,*,#487,.T.);
#646=ORIENTED_EDGE('',*,*,#484,.F.);
#647=ORIENTED_EDGE('',*,*,#480,.F.);
#648=ORIENTED_EDGE('',*,*,#488,.F.);
#649=ORIENTED_EDGE('',*,*,#489,.F.);
#650=ORIENTED_EDGE('',*,*,#490,.F.);
#651=ORIENTED_EDGE('',*,*,#491,.T.);
#652=ORIENTED_EDGE('',*,*,#488,.T.);
#653=ORIENTED_EDGE('',*,*,#479,.T.);
#654=ORIENTED_EDGE('',*,*,#492,.F.);
#655=ORIENTED_EDGE('',*,*,#493,.F.);
#656=ORIENTED_EDGE('',*,*,#494,.T.);
#657=ORIENTED_EDGE('',*,*,#495,.T.);
#658=ORIENTED_EDGE('',*,*,#433,.T.);
#659=ORIENTED_EDGE('',*,*,#443,.T.);
#660=ORIENTED_EDGE('',*,*,#440,.T.);
#661=ORIENTED_EDGE('',*,*,#437,.T.);
#662=ORIENTED_EDGE('',*,*,#493,.T.);
#663=ORIENTED_EDGE('',*,*,#496,.T.);
#664=ORIENTED_EDGE('',*,*,#497,.F.);
#665=ORIENTED_EDGE('',*,*,#498,.F.);
#666=ORIENTED_EDGE('',*,*,#499,.F.);
#667=ORIENTED_EDGE('',*,*,#500,.T.);
#668=ORIENTED_EDGE('',*,*,#501,.T.);
#669=ORIENTED_EDGE('',*,*,#500,.F.);
#670=ORIENTED_EDGE('',*,*,#502,.F.);
#671=ORIENTED_EDGE('',*,*,#503,.T.);
#672=ORIENTED_EDGE('',*,*,#504,.T.);
#673=ORIENTED_EDGE('',*,*,#503,.F.);
#674=ORIENTED_EDGE('',*,*,#505,.F.);
#675=ORIENTED_EDGE('',*,*,#489,.T.);
#676=ORIENTED_EDGE('',*,*,#491,.F.);
#677=ORIENTED_EDGE('',*,*,#506,.T.);
#678=ORIENTED_EDGE('',*,*,#507,.F.);
#679=ORIENTED_EDGE('',*,*,#469,.F.);
#680=ORIENTED_EDGE('',*,*,#478,.F.);
#681=ORIENTED_EDGE('',*,*,#476,.F.);
#682=ORIENTED_EDGE('',*,*,#508,.F.);
#683=ORIENTED_EDGE('',*,*,#451,.T.);
#684=ORIENTED_EDGE('',*,*,#453,.F.);
#685=ORIENTED_EDGE('',*,*,#471,.T.);
#686=ORIENTED_EDGE('',*,*,#509,.F.);
#687=ORIENTED_EDGE('',*,*,#510,.F.);
#688=ORIENTED_EDGE('',*,*,#495,.F.);
#689=ORIENTED_EDGE('',*,*,#511,.F.);
#690=ORIENTED_EDGE('',*,*,#485,.F.);
#691=ORIENTED_EDGE('',*,*,#487,.F.);
#692=ORIENTED_EDGE('',*,*,#492,.T.);
#693=ORIENTED_EDGE('',*,*,#510,.T.);
#694=ORIENTED_EDGE('',*,*,#512,.F.);
#695=ORIENTED_EDGE('',*,*,#496,.F.);
#696=ORIENTED_EDGE('',*,*,#483,.T.);
#697=ORIENTED_EDGE('',*,*,#511,.T.);
#698=ORIENTED_EDGE('',*,*,#494,.F.);
#699=ORIENTED_EDGE('',*,*,#498,.T.);
#700=ORIENTED_EDGE('',*,*,#513,.F.);
#701=ORIENTED_EDGE('',*,*,#506,.F.);
#702=ORIENTED_EDGE('',*,*,#490,.T.);
#703=ORIENTED_EDGE('',*,*,#482,.T.);
#704=ORIENTED_EDGE('',*,*,#513,.T.);
#705=ORIENTED_EDGE('',*,*,#497,.T.);
#706=ORIENTED_EDGE('',*,*,#512,.T.);
#707=ORIENTED_EDGE('',*,*,#509,.T.);
#708=ORIENTED_EDGE('',*,*,#470,.T.);
#709=ORIENTED_EDGE('',*,*,#507,.T.);
#710=ORIENTED_EDGE('',*,*,#403,.T.);
#711=ORIENTED_EDGE('',*,*,#431,.T.);
#712=ORIENTED_EDGE('',*,*,#428,.T.);
#713=ORIENTED_EDGE('',*,*,#425,.T.);
#714=ORIENTED_EDGE('',*,*,#422,.T.);
#715=ORIENTED_EDGE('',*,*,#419,.T.);
#716=ORIENTED_EDGE('',*,*,#416,.T.);
#717=ORIENTED_EDGE('',*,*,#413,.T.);
#718=ORIENTED_EDGE('',*,*,#410,.T.);
#719=ORIENTED_EDGE('',*,*,#407,.T.);
#720=ORIENTED_EDGE('',*,*,#502,.T.);
#721=ORIENTED_EDGE('',*,*,#499,.T.);
#722=ORIENTED_EDGE('',*,*,#508,.T.);
#723=ORIENTED_EDGE('',*,*,#486,.T.);
#724=ORIENTED_EDGE('',*,*,#505,.T.);
#725=ORIENTED_EDGE('',*,*,#475,.T.);
#726=ORIENTED_EDGE('',*,*,#472,.T.);
#727=ORIENTED_EDGE('',*,*,#466,.F.);
#728=ORIENTED_EDGE('',*,*,#454,.T.);
#729=ORIENTED_EDGE('',*,*,#458,.T.);
#730=ORIENTED_EDGE('',*,*,#461,.F.);
#731=ORIENTED_EDGE('',*,*,#465,.F.);
#732=ORIENTED_EDGE('',*,*,#445,.F.);
#733=ORIENTED_EDGE('',*,*,#449,.T.);
#734=ORIENTED_EDGE('',*,*,#504,.F.);
#735=ORIENTED_EDGE('',*,*,#501,.F.);
#736=PLANE('',#830);
#737=PLANE('',#831);
#738=PLANE('',#832);
#739=PLANE('',#833);
#740=PLANE('',#834);
#741=PLANE('',#835);
#742=PLANE('',#836);
#743=PLANE('',#837);
#744=PLANE('',#838);
#745=PLANE('',#839);
#746=PLANE('',#840);
#747=PLANE('',#841);
#748=PLANE('',#842);
#749=PLANE('',#843);
#750=PLANE('',#844);
#751=PLANE('',#845);
#752=PLANE('',#846);
#753=PLANE('',#847);
#754=PLANE('',#848);
#755=PLANE('',#849);
#756=PLANE('',#850);
#757=PLANE('',#851);
#758=PLANE('',#852);
#759=PLANE('',#853);
#760=PLANE('',#854);
#761=PLANE('',#855);
#762=PLANE('',#856);
#763=PLANE('',#857);
#764=PLANE('',#858);
#765=PLANE('',#859);
#766=PLANE('',#860);
#767=PLANE('',#861);
#768=PLANE('',#862);
#769=PLANE('',#869);
#770=PLANE('',#870);
#771=PLANE('',#871);
#772=PLANE('',#872);
#773=PLANE('',#873);
#774=PLANE('',#874);
#775=ADVANCED_FACE('',(#27),#736,.F.);
#776=ADVANCED_FACE('',(#28),#737,.F.);
#777=ADVANCED_FACE('',(#29),#738,.F.);
#778=ADVANCED_FACE('',(#30),#739,.F.);
#779=ADVANCED_FACE('',(#31),#740,.F.);
#780=ADVANCED_FACE('',(#32),#741,.F.);
#781=ADVANCED_FACE('',(#33),#742,.F.);
#782=ADVANCED_FACE('',(#34),#743,.F.);
#783=ADVANCED_FACE('',(#35),#744,.F.);
#784=ADVANCED_FACE('',(#36),#745,.F.);
#785=ADVANCED_FACE('',(#37),#746,.F.);
#786=ADVANCED_FACE('',(#38),#747,.F.);
#787=ADVANCED_FACE('',(#39),#748,.F.);
#788=ADVANCED_FACE('',(#40),#749,.F.);
#789=ADVANCED_FACE('',(#41),#750,.F.);
#790=ADVANCED_FACE('',(#42),#751,.F.);
#791=ADVANCED_FACE('',(#43),#752,.T.);
#792=ADVANCED_FACE('',(#44),#753,.T.);
#793=ADVANCED_FACE('',(#45),#754,.T.);
#794=ADVANCED_FACE('',(#46),#755,.T.);
#795=ADVANCED_FACE('',(#47),#756,.T.);
#796=ADVANCED_FACE('',(#48),#757,.T.);
#797=ADVANCED_FACE('',(#49),#758,.T.);
#798=ADVANCED_FACE('',(#50),#759,.T.);
#799=ADVANCED_FACE('',(#51),#760,.T.);
#800=ADVANCED_FACE('',(#52),#761,.T.);
#801=ADVANCED_FACE('',(#53),#762,.T.);
#802=ADVANCED_FACE('',(#54),#763,.T.);
#803=ADVANCED_FACE('',(#55),#764,.T.);
#804=ADVANCED_FACE('',(#56),#765,.T.);
#805=ADVANCED_FACE('',(#57),#766,.T.);
#806=ADVANCED_FACE('',(#58,#21),#767,.T.);
#807=ADVANCED_FACE('',(#59),#768,.T.);
#808=ADVANCED_FACE('',(#60),#19,.F.);
#809=ADVANCED_FACE('',(#61),#20,.F.);
#810=ADVANCED_FACE('',(#62),#769,.T.);
#811=ADVANCED_FACE('',(#63),#770,.T.);
#812=ADVANCED_FACE('',(#64),#771,.T.);
#813=ADVANCED_FACE('',(#65),#772,.T.);
#814=ADVANCED_FACE('',(#66,#22,#23,#24),#773,.T.);
#815=ADVANCED_FACE('',(#67,#25,#26),#774,.F.);
#816=CLOSED_SHELL('',(#775,#776,#777,#778,#779,#780,#781,#782,#783,#784,
#785,#786,#787,#788,#789,#790,#791,#792,#793,#794,#795,#796,#797,#798,#799,
#800,#801,#802,#803,#804,#805,#806,#807,#808,#809,#810,#811,#812,#813,#814,
#815));
#817=DERIVED_UNIT_ELEMENT(#819,1.);
#818=DERIVED_UNIT_ELEMENT(#1306,-3.);
#819=(
MASS_UNIT()
NAMED_UNIT(*)
SI_UNIT(.KILO.,.GRAM.)
);
#820=DERIVED_UNIT((#817,#818));
#821=MEASURE_REPRESENTATION_ITEM('density measure',
POSITIVE_RATIO_MEASURE(7850.),#820);
#822=PROPERTY_DEFINITION_REPRESENTATION(#827,#824);
#823=PROPERTY_DEFINITION_REPRESENTATION(#828,#825);
#824=REPRESENTATION('material name',(#826),#1303);
#825=REPRESENTATION('density',(#821),#1303);
#826=DESCRIPTIVE_REPRESENTATION_ITEM('Acciaio','Acciaio');
#827=PROPERTY_DEFINITION('material property','material name',#1313);
#828=PROPERTY_DEFINITION('material property','density of part',#1313);
#829=AXIS2_PLACEMENT_3D('',#1074,#875,#876);
#830=AXIS2_PLACEMENT_3D('',#1075,#877,#878);
#831=AXIS2_PLACEMENT_3D('',#1084,#883,#884);
#832=AXIS2_PLACEMENT_3D('',#1090,#888,#889);
#833=AXIS2_PLACEMENT_3D('',#1096,#893,#894);
#834=AXIS2_PLACEMENT_3D('',#1102,#898,#899);
#835=AXIS2_PLACEMENT_3D('',#1108,#903,#904);
#836=AXIS2_PLACEMENT_3D('',#1114,#908,#909);
#837=AXIS2_PLACEMENT_3D('',#1120,#913,#914);
#838=AXIS2_PLACEMENT_3D('',#1126,#918,#919);
#839=AXIS2_PLACEMENT_3D('',#1132,#923,#924);
#840=AXIS2_PLACEMENT_3D('',#1135,#927,#928);
#841=AXIS2_PLACEMENT_3D('',#1136,#929,#930);
#842=AXIS2_PLACEMENT_3D('',#1145,#935,#936);
#843=AXIS2_PLACEMENT_3D('',#1151,#940,#941);
#844=AXIS2_PLACEMENT_3D('',#1157,#945,#946);
#845=AXIS2_PLACEMENT_3D('',#1160,#949,#950);
#846=AXIS2_PLACEMENT_3D('',#1161,#951,#952);
#847=AXIS2_PLACEMENT_3D('',#1170,#957,#958);
#848=AXIS2_PLACEMENT_3D('',#1176,#962,#963);
#849=AXIS2_PLACEMENT_3D('',#1180,#966,#967);
#850=AXIS2_PLACEMENT_3D('',#1189,#972,#973);
#851=AXIS2_PLACEMENT_3D('',#1195,#977,#978);
#852=AXIS2_PLACEMENT_3D('',#1201,#982,#983);
#853=AXIS2_PLACEMENT_3D('',#1203,#985,#986);
#854=AXIS2_PLACEMENT_3D('',#1216,#994,#995);
#855=AXIS2_PLACEMENT_3D('',#1222,#999,#1000);
#856=AXIS2_PLACEMENT_3D('',#1228,#1004,#1005);
#857=AXIS2_PLACEMENT_3D('',#1230,#1007,#1008);
#858=AXIS2_PLACEMENT_3D('',#1239,#1013,#1014);
#859=AXIS2_PLACEMENT_3D('',#1245,#1018,#1019);
#860=AXIS2_PLACEMENT_3D('',#1253,#1024,#1025);
#861=AXIS2_PLACEMENT_3D('',#1257,#1028,#1029);
#862=AXIS2_PLACEMENT_3D('',#1266,#1034,#1035);
#863=AXIS2_PLACEMENT_3D('',#1272,#1039,#1040);
#864=AXIS2_PLACEMENT_3D('',#1274,#1041,#1042);
#865=AXIS2_PLACEMENT_3D('',#1277,#1044,#1045);
#866=AXIS2_PLACEMENT_3D('',#1278,#1046,#1047);
#867=AXIS2_PLACEMENT_3D('',#1280,#1048,#1049);
#868=AXIS2_PLACEMENT_3D('',#1283,#1051,#1052);
#869=AXIS2_PLACEMENT_3D('',#1284,#1053,#1054);
#870=AXIS2_PLACEMENT_3D('',#1289,#1058,#1059);
#871=AXIS2_PLACEMENT_3D('',#1295,#1064,#1065);
#872=AXIS2_PLACEMENT_3D('',#1297,#1067,#1068);
#873=AXIS2_PLACEMENT_3D('',#1299,#1070,#1071);
#874=AXIS2_PLACEMENT_3D('',#1300,#1072,#1073);
#875=DIRECTION('axis',(0.,0.,1.));
#876=DIRECTION('refdir',(1.,0.,0.));
#877=DIRECTION('center_axis',(-1.,0.,0.));
#878=DIRECTION('ref_axis',(0.,1.,0.));
#879=DIRECTION('',(0.,1.,0.));
#880=DIRECTION('',(0.,0.,-1.));
#881=DIRECTION('',(0.,1.,0.));
#882=DIRECTION('',(0.,0.,-1.));
#883=DIRECTION('center_axis',(0.,-1.,0.));
#884=DIRECTION('ref_axis',(-1.,0.,0.));
#885=DIRECTION('',(-1.,0.,0.));
#886=DIRECTION('',(0.,0.,-1.));
#887=DIRECTION('',(-1.,0.,0.));
#888=DIRECTION('center_axis',(-1.,1.40980701539702E-15,0.));
#889=DIRECTION('ref_axis',(1.40980701539702E-15,1.,0.));
#890=DIRECTION('',(1.40980701539702E-15,1.,0.));
#891=DIRECTION('',(0.,0.,-1.));
#892=DIRECTION('',(1.40980701539702E-15,1.,0.));
#893=DIRECTION('center_axis',(0.,-1.,0.));
#894=DIRECTION('ref_axis',(-1.,0.,0.));
#895=DIRECTION('',(-1.,0.,0.));
#896=DIRECTION('',(0.,0.,-1.));
#897=DIRECTION('',(-1.,0.,0.));
#898=DIRECTION('center_axis',(1.,0.,0.));
#899=DIRECTION('ref_axis',(0.,-1.,0.));
#900=DIRECTION('',(0.,-1.,0.));
#901=DIRECTION('',(0.,0.,-1.));
#902=DIRECTION('',(0.,-1.,0.));
#903=DIRECTION('center_axis',(0.,1.,0.));
#904=DIRECTION('ref_axis',(1.,0.,0.));
#905=DIRECTION('',(1.,0.,0.));
#906=DIRECTION('',(0.,0.,-1.));
#907=DIRECTION('',(1.,0.,0.));
#908=DIRECTION('center_axis',(1.,0.,0.));
#909=DIRECTION('ref_axis',(0.,-1.,0.));
#910=DIRECTION('',(0.,-1.,0.));
#911=DIRECTION('',(0.,0.,-1.));
#912=DIRECTION('',(0.,-1.,0.));
#913=DIRECTION('center_axis',(0.,1.,0.));
#914=DIRECTION('ref_axis',(1.,0.,0.));
#915=DIRECTION('',(1.,0.,0.));
#916=DIRECTION('',(0.,0.,-1.));
#917=DIRECTION('',(1.,0.,0.));
#918=DIRECTION('center_axis',(-1.,-1.40980701539703E-15,0.));
#919=DIRECTION('ref_axis',(-1.40980701539703E-15,1.,0.));
#920=DIRECTION('',(-1.40980701539703E-15,1.,0.));
#921=DIRECTION('',(0.,0.,-1.));
#922=DIRECTION('',(-1.40980701539703E-15,1.,0.));
#923=DIRECTION('center_axis',(-1.44149742681934E-15,1.,0.));
#924=DIRECTION('ref_axis',(1.,1.44149742681934E-15,0.));
#925=DIRECTION('',(1.,1.44149742681934E-15,0.));
#926=DIRECTION('',(1.,1.44149742681934E-15,0.));
#927=DIRECTION('center_axis',(0.,0.,-1.));
#928=DIRECTION('ref_axis',(-1.,0.,0.));
#929=DIRECTION('center_axis',(1.,0.,0.));
#930=DIRECTION('ref_axis',(0.,-1.,0.));
#931=DIRECTION('',(0.,-1.,0.));
#932=DIRECTION('',(0.,0.,-1.));
#933=DIRECTION('',(0.,-1.,0.));
#934=DIRECTION('',(0.,0.,-1.));
#935=DIRECTION('center_axis',(0.,1.,0.));
#936=DIRECTION('ref_axis',(1.,0.,0.));
#937=DIRECTION('',(1.,0.,0.));
#938=DIRECTION('',(0.,0.,-1.));
#939=DIRECTION('',(1.,0.,0.));
#940=DIRECTION('center_axis',(-1.,0.,0.));
#941=DIRECTION('ref_axis',(0.,1.,0.));
#942=DIRECTION('',(0.,1.,0.));
#943=DIRECTION('',(0.,0.,-1.));
#944=DIRECTION('',(0.,1.,0.));
#945=DIRECTION('center_axis',(0.,-1.,0.));
#946=DIRECTION('ref_axis',(-1.,0.,0.));
#947=DIRECTION('',(-1.,0.,0.));
#948=DIRECTION('',(-1.,0.,0.));
#949=DIRECTION('center_axis',(0.,0.,-1.));
#950=DIRECTION('ref_axis',(-1.,0.,0.));
#951=DIRECTION('center_axis',(0.,-1.,0.));
#952=DIRECTION('ref_axis',(1.,0.,0.));
#953=DIRECTION('',(1.,0.,0.));
#954=DIRECTION('',(0.,0.,-1.));
#955=DIRECTION('',(1.,0.,0.));
#956=DIRECTION('',(0.,0.,1.));
#957=DIRECTION('center_axis',(-1.,0.,0.));
#958=DIRECTION('ref_axis',(0.,-1.,0.));
#959=DIRECTION('',(0.,1.,0.));
#960=DIRECTION('',(0.,-1.,0.));
#961=DIRECTION('',(0.,0.,1.));
#962=DIRECTION('center_axis',(0.,0.,1.));
#963=DIRECTION('ref_axis',(1.,0.,0.));
#964=DIRECTION('',(0.,-1.,0.));
#965=DIRECTION('',(-1.,0.,0.));
#966=DIRECTION('center_axis',(0.,-1.,0.));
#967=DIRECTION('ref_axis',(1.,0.,0.));
#968=DIRECTION('',(-1.,0.,0.));
#969=DIRECTION('',(0.,0.,-1.));
#970=DIRECTION('',(1.,0.,0.));
#971=DIRECTION('',(0.,0.,1.));
#972=DIRECTION('center_axis',(-1.,0.,0.));
#973=DIRECTION('ref_axis',(0.,-1.,0.));
#974=DIRECTION('',(0.,1.,0.));
#975=DIRECTION('',(0.,-1.,0.));
#976=DIRECTION('',(0.,0.,1.));
#977=DIRECTION('center_axis',(0.,1.,0.));
#978=DIRECTION('ref_axis',(-1.,0.,0.));
#979=DIRECTION('',(-1.,0.,0.));
#980=DIRECTION('',(-1.,0.,0.));
#981=DIRECTION('',(0.,0.,1.));
#982=DIRECTION('center_axis',(0.,0.,1.));
#983=DIRECTION('ref_axis',(1.,0.,0.));
#984=DIRECTION('',(0.,-1.,0.));
#985=DIRECTION('center_axis',(-1.,0.,0.));
#986=DIRECTION('ref_axis',(0.,-1.,0.));
#987=DIRECTION('',(0.,-1.,0.));
#988=DIRECTION('',(0.,-1.,0.));
#989=DIRECTION('',(0.,0.,1.));
#990=DIRECTION('',(0.,-1.,0.));
#991=DIRECTION('',(0.,0.,1.));
#992=DIRECTION('',(0.,-1.,0.));
#993=DIRECTION('',(0.,0.,1.));
#994=DIRECTION('center_axis',(0.,1.,0.));
#995=DIRECTION('ref_axis',(-1.,0.,0.));
#996=DIRECTION('',(1.,0.,0.));
#997=DIRECTION('',(0.,0.,1.));
#998=DIRECTION('',(-1.,0.,0.));
#999=DIRECTION('center_axis',(-1.,0.,0.));
#1000=DIRECTION('ref_axis',(0.,-1.,0.));
#1001=DIRECTION('',(0.,1.,0.));
#1002=DIRECTION('',(0.,0.,1.));
#1003=DIRECTION('',(0.,-1.,0.));
#1004=DIRECTION('center_axis',(0.,0.,1.));
#1005=DIRECTION('ref_axis',(1.,0.,0.));
#1006=DIRECTION('',(1.,0.,0.));
#1007=DIRECTION('center_axis',(0.,-1.,0.));
#1008=DIRECTION('ref_axis',(1.,0.,0.));
#1009=DIRECTION('',(-1.,0.,0.));
#1010=DIRECTION('',(0.,0.,1.));
#1011=DIRECTION('',(1.,0.,0.));
#1012=DIRECTION('',(0.,0.,1.));
#1013=DIRECTION('center_axis',(0.,0.,1.));
#1014=DIRECTION('ref_axis',(1.,0.,0.));
#1015=DIRECTION('',(0.,1.,0.));
#1016=DIRECTION('',(0.,1.,0.));
#1017=DIRECTION('',(-1.,0.,0.));
#1018=DIRECTION('center_axis',(1.,0.,0.));
#1019=DIRECTION('ref_axis',(0.,1.,0.));
#1020=DIRECTION('',(0.,-1.,0.));
#1021=DIRECTION('',(0.,0.,1.));
#1022=DIRECTION('',(0.,1.,0.));
#1023=DIRECTION('',(0.,0.,1.));
#1024=DIRECTION('center_axis',(0.,0.,1.));
#1025=DIRECTION('ref_axis',(1.,0.,0.));
#1026=DIRECTION('',(0.,1.,0.));
#1027=DIRECTION('',(1.,0.,0.));
#1028=DIRECTION('center_axis',(0.,0.,1.));
#1029=DIRECTION('ref_axis',(1.,0.,0.));
#1030=DIRECTION('',(0.,1.,0.));
#1031=DIRECTION('',(-1.,0.,0.));
#1032=DIRECTION('',(0.,1.,0.));
#1033=DIRECTION('',(-1.,0.,0.));
#1034=DIRECTION('center_axis',(0.,1.,0.));
#1035=DIRECTION('ref_axis',(-1.,0.,0.));
#1036=DIRECTION('',(0.,0.,1.));
#1037=DIRECTION('',(-1.,0.,0.));
#1038=DIRECTION('',(0.,0.,1.));
#1039=DIRECTION('center_axis',(0.,0.,1.));
#1040=DIRECTION('ref_axis',(1.,0.,0.));
#1041=DIRECTION('center_axis',(0.,0.,-1.));
#1042=DIRECTION('ref_axis',(1.,0.,0.));
#1043=DIRECTION('',(0.,0.,-1.));
#1044=DIRECTION('center_axis',(0.,0.,-1.));
#1045=DIRECTION('ref_axis',(1.,0.,0.));
#1046=DIRECTION('center_axis',(0.,0.,1.));
#1047=DIRECTION('ref_axis',(1.,0.,0.));
#1048=DIRECTION('center_axis',(0.,0.,-1.));
#1049=DIRECTION('ref_axis',(1.,0.,0.));
#1050=DIRECTION('',(0.,0.,-1.));
#1051=DIRECTION('center_axis',(0.,0.,-1.));
#1052=DIRECTION('ref_axis',(1.,0.,0.));
#1053=DIRECTION('center_axis',(0.,-1.,0.));
#1054=DIRECTION('ref_axis',(1.,0.,0.));
#1055=DIRECTION('',(-1.,0.,0.));
#1056=DIRECTION('',(0.,0.,1.));
#1057=DIRECTION('',(1.,0.,0.));
#1058=DIRECTION('center_axis',(0.,1.,0.));
#1059=DIRECTION('ref_axis',(-1.,0.,0.));
#1060=DIRECTION('',(1.,0.,0.));
#1061=DIRECTION('',(-1.,0.,0.));
#1062=DIRECTION('',(0.,0.,1.));
#1063=DIRECTION('',(0.,0.,1.));
#1064=DIRECTION('center_axis',(1.,0.,0.));
#1065=DIRECTION('ref_axis',(0.,1.,0.));
#1066=DIRECTION('',(0.,1.,0.));
#1067=DIRECTION('center_axis',(1.,0.,0.));
#1068=DIRECTION('ref_axis',(0.,1.,0.));
#1069=DIRECTION('',(0.,1.,0.));
#1070=DIRECTION('center_axis',(0.,0.,1.));
#1071=DIRECTION('ref_axis',(1.,0.,0.));
#1072=DIRECTION('center_axis',(0.,0.,1.));
#1073=DIRECTION('ref_axis',(1.,0.,0.));
#1074=CARTESIAN_POINT('',(0.,0.,0.));
#1075=CARTESIAN_POINT('Origin',(45.6194504408806,20.8227639786737,3.));
#1076=CARTESIAN_POINT('',(45.6194504408806,20.8227639786737,3.));
#1077=CARTESIAN_POINT('',(45.6194504408806,53.8227639786737,3.));
#1078=CARTESIAN_POINT('',(45.6194504408806,29.0727639786737,3.));
#1079=CARTESIAN_POINT('',(45.6194504408806,20.8227639786737,1.));
#1080=CARTESIAN_POINT('',(45.6194504408806,20.8227639786737,3.));
#1081=CARTESIAN_POINT('',(45.6194504408806,53.8227639786737,1.));
#1082=CARTESIAN_POINT('',(45.6194504408806,20.8227639786737,1.));
#1083=CARTESIAN_POINT('',(45.6194504408806,53.8227639786737,3.));
#1084=CARTESIAN_POINT('Origin',(51.7809489158372,20.8227639786737,3.));
#1085=CARTESIAN_POINT('',(51.7809489158372,20.8227639786737,3.));
#1086=CARTESIAN_POINT('',(55.3251996783589,20.8227639786737,3.));
#1087=CARTESIAN_POINT('',(51.7809489158372,20.8227639786737,1.));
#1088=CARTESIAN_POINT('',(51.7809489158372,20.8227639786737,3.));
#1089=CARTESIAN_POINT('',(51.7809489158372,20.8227639786737,1.));
#1090=CARTESIAN_POINT('Origin',(51.7809489158372,14.5227639786737,3.));
#1091=CARTESIAN_POINT('',(51.7809489158372,14.5227639786737,3.));
#1092=CARTESIAN_POINT('',(51.7809489158372,25.9227639786737,3.));
#1093=CARTESIAN_POINT('',(51.7809489158372,14.5227639786737,1.));
#1094=CARTESIAN_POINT('',(51.7809489158372,14.5227639786737,3.));
#1095=CARTESIAN_POINT('',(51.7809489158372,14.5227639786737,1.));
#1096=CARTESIAN_POINT('Origin',(72.1194504408806,14.5227639786737,3.));
#1097=CARTESIAN_POINT('',(72.1194504408806,14.5227639786737,3.));
#1098=CARTESIAN_POINT('',(65.4944504408806,14.5227639786737,3.));
#1099=CARTESIAN_POINT('',(72.1194504408806,14.5227639786737,1.));
#1100=CARTESIAN_POINT('',(72.1194504408806,14.5227639786737,3.));
#1101=CARTESIAN_POINT('',(72.1194504408806,14.5227639786737,1.));
#1102=CARTESIAN_POINT('Origin',(72.1194504408806,35.0000005215406,3.));
#1103=CARTESIAN_POINT('',(72.1194504408806,35.0000005215406,3.));
#1104=CARTESIAN_POINT('',(72.1194504408806,36.1613822501072,3.));
#1105=CARTESIAN_POINT('',(72.1194504408806,35.0000005215406,1.));
#1106=CARTESIAN_POINT('',(72.1194504408806,35.0000005215406,3.));
#1107=CARTESIAN_POINT('',(72.1194504408806,35.0000005215406,1.));
#1108=CARTESIAN_POINT('Origin',(57.1194504408806,35.0000005215406,3.));
#1109=CARTESIAN_POINT('',(57.1194504408806,35.0000005215406,3.));
#1110=CARTESIAN_POINT('',(57.9944504408806,35.0000005215406,3.));
#1111=CARTESIAN_POINT('',(57.1194504408806,35.0000005215406,1.));
#1112=CARTESIAN_POINT('',(57.1194504408806,35.0000005215406,3.));
#1113=CARTESIAN_POINT('',(57.1194504408806,35.0000005215406,1.));
#1114=CARTESIAN_POINT('Origin',(57.1194504408806,60.1227639786737,3.));
#1115=CARTESIAN_POINT('',(57.1194504408806,60.1227639786737,3.));
#1116=CARTESIAN_POINT('',(57.1194504408806,48.7227639786737,3.));
#1117=CARTESIAN_POINT('',(57.1194504408806,60.1227639786737,1.));
#1118=CARTESIAN_POINT('',(57.1194504408806,60.1227639786737,3.));
#1119=CARTESIAN_POINT('',(57.1194504408806,60.1227639786737,1.));
#1120=CARTESIAN_POINT('Origin',(51.7809489158373,60.1227639786737,3.));
#1121=CARTESIAN_POINT('',(51.7809489158373,60.1227639786737,3.));
#1122=CARTESIAN_POINT('',(55.325199678359,60.1227639786737,3.));
#1123=CARTESIAN_POINT('',(51.7809489158373,60.1227639786737,1.));
#1124=CARTESIAN_POINT('',(51.7809489158373,60.1227639786737,3.));
#1125=CARTESIAN_POINT('',(51.7809489158373,60.1227639786737,1.));
#1126=CARTESIAN_POINT('Origin',(51.7809489158373,53.8227639786737,3.));
#1127=CARTESIAN_POINT('',(51.7809489158373,53.8227639786737,3.));
#1128=CARTESIAN_POINT('',(51.7809489158373,45.5727639786737,3.));
#1129=CARTESIAN_POINT('',(51.7809489158373,53.8227639786737,1.));
#1130=CARTESIAN_POINT('',(51.7809489158373,53.8227639786737,3.));
#1131=CARTESIAN_POINT('',(51.7809489158373,53.8227639786737,1.));
#1132=CARTESIAN_POINT('Origin',(45.6194504408806,53.8227639786737,3.));
#1133=CARTESIAN_POINT('',(52.2444504408806,53.8227639786737,3.));
#1134=CARTESIAN_POINT('',(45.6194504408806,53.8227639786737,1.));
#1135=CARTESIAN_POINT('Origin',(58.8694504408806,37.3227639786737,1.));
#1136=CARTESIAN_POINT('Origin',(72.1194504408806,60.1227639786737,2.));
#1137=CARTESIAN_POINT('',(72.1194504408806,60.1227639786737,2.));
#1138=CARTESIAN_POINT('',(72.1194504408806,38.4568229868069,2.));
#1139=CARTESIAN_POINT('',(72.1194504408807,54.9227639786737,2.));
#1140=CARTESIAN_POINT('',(72.1194504408806,60.1227639786737,1.));
#1141=CARTESIAN_POINT('',(72.1194504408806,60.1227639786737,2.));
#1142=CARTESIAN_POINT('',(72.1194504408806,38.4568229868069,1.));
#1143=CARTESIAN_POINT('',(72.1194504408806,60.1227639786737,1.));
#1144=CARTESIAN_POINT('',(72.1194504408806,38.4568229868069,2.));
#1145=CARTESIAN_POINT('Origin',(61.1194504408806,60.1227639786737,2.));
#1146=CARTESIAN_POINT('',(61.1194504408806,60.1227639786737,2.));
#1147=CARTESIAN_POINT('',(63.8694504408806,60.1227639786737,2.));
#1148=CARTESIAN_POINT('',(61.1194504408806,60.1227639786737,1.));
#1149=CARTESIAN_POINT('',(61.1194504408806,60.1227639786737,2.));
#1150=CARTESIAN_POINT('',(61.1194504408806,60.1227639786737,1.));
#1151=CARTESIAN_POINT('Origin',(61.1194504408806,38.4568229868069,2.));
#1152=CARTESIAN_POINT('',(61.1194504408806,38.4568229868069,2.));
#1153=CARTESIAN_POINT('',(61.1194504408806,44.0897934827403,2.));
#1154=CARTESIAN_POINT('',(61.1194504408806,38.4568229868069,1.));
#1155=CARTESIAN_POINT('',(61.1194504408806,38.4568229868069,2.));
#1156=CARTESIAN_POINT('',(61.1194504408806,38.4568229868069,1.));
#1157=CARTESIAN_POINT('Origin',(72.1194504408806,38.4568229868069,2.));
#1158=CARTESIAN_POINT('',(69.3694504408806,38.4568229868069,2.));
#1159=CARTESIAN_POINT('',(72.1194504408806,38.4568229868069,1.));
#1160=CARTESIAN_POINT('Origin',(66.6194504408806,49.2897934827403,1.));
#1161=CARTESIAN_POINT('Origin',(39.1194504408806,52.3227639786737,0.));
#1162=CARTESIAN_POINT('',(39.1194504408806,52.3227639786737,0.));
#1163=CARTESIAN_POINT('',(43.6194504408806,52.3227639786737,0.));
#1164=CARTESIAN_POINT('',(39.1194504408806,52.3227639786737,0.));
#1165=CARTESIAN_POINT('',(43.6194504408806,52.3227639786737,1.5));
#1166=CARTESIAN_POINT('',(43.6194504408806,52.3227639786737,0.));
#1167=CARTESIAN_POINT('',(39.1194504408806,52.3227639786737,1.5));
#1168=CARTESIAN_POINT('',(39.1194504408806,52.3227639786737,1.5));
#1169=CARTESIAN_POINT('',(39.1194504408806,52.3227639786737,0.));
#1170=CARTESIAN_POINT('Origin',(39.1194504408806,62.1227639786737,0.));
#1171=CARTESIAN_POINT('',(39.1194504408806,62.1227639786737,0.));
#1172=CARTESIAN_POINT('',(39.1194504408806,12.5227639786737,0.));
#1173=CARTESIAN_POINT('',(39.1194504408806,62.1227639786737,1.5));
#1174=CARTESIAN_POINT('',(39.1194504408806,12.5227639786737,1.5));
#1175=CARTESIAN_POINT('',(39.1194504408806,62.1227639786737,0.));
#1176=CARTESIAN_POINT('Origin',(41.3694504408806,57.2227639786737,1.5));
#1177=CARTESIAN_POINT('',(43.6194504408806,62.1227639786737,1.5));
#1178=CARTESIAN_POINT('',(43.6194504408806,59.6727639786737,1.5));
#1179=CARTESIAN_POINT('',(39.1194504408806,62.1227639786737,1.5));
#1180=CARTESIAN_POINT('Origin',(39.1194504408806,27.3227639786737,0.));
#1181=CARTESIAN_POINT('',(43.6194504408806,27.3227639786737,0.));
#1182=CARTESIAN_POINT('',(39.1194504408806,27.3227639786737,0.));
#1183=CARTESIAN_POINT('',(43.6194504408806,27.3227639786737,0.));
#1184=CARTESIAN_POINT('',(43.6194504408806,27.3227639786737,1.5));
#1185=CARTESIAN_POINT('',(43.6194504408806,27.3227639786737,0.));
#1186=CARTESIAN_POINT('',(39.1194504408806,27.3227639786737,1.5));
#1187=CARTESIAN_POINT('',(43.6194504408806,27.3227639786737,1.5));
#1188=CARTESIAN_POINT('',(39.1194504408806,27.3227639786737,0.));
#1189=CARTESIAN_POINT('Origin',(39.1194504408806,47.3227639786737,0.));
#1190=CARTESIAN_POINT('',(39.1194504408806,47.3227639786737,0.));
#1191=CARTESIAN_POINT('',(39.1194504408806,12.5227639786737,0.));
#1192=CARTESIAN_POINT('',(39.1194504408806,47.3227639786737,1.5));
#1193=CARTESIAN_POINT('',(39.1194504408806,12.5227639786737,1.5));
#1194=CARTESIAN_POINT('',(39.1194504408806,47.3227639786737,0.));
#1195=CARTESIAN_POINT('Origin',(43.6194504408806,47.3227639786737,0.));
#1196=CARTESIAN_POINT('',(43.6194504408806,47.3227639786737,0.));
#1197=CARTESIAN_POINT('',(43.6194504408806,47.3227639786737,0.));
#1198=CARTESIAN_POINT('',(43.6194504408806,47.3227639786737,1.5));
#1199=CARTESIAN_POINT('',(43.6194504408806,47.3227639786737,1.5));
#1200=CARTESIAN_POINT('',(43.6194504408806,47.3227639786737,0.));
#1201=CARTESIAN_POINT('Origin',(41.3694504408806,37.3227639786737,1.5));
#1202=CARTESIAN_POINT('',(43.6194504408806,49.7227639786737,1.5));
#1203=CARTESIAN_POINT('Origin',(43.6194504408806,62.1227639786737,0.));
#1204=CARTESIAN_POINT('',(43.6194504408806,62.1227639786737,0.));
#1205=CARTESIAN_POINT('',(43.6194504408806,22.3227639786737,0.));
#1206=CARTESIAN_POINT('',(43.6194504408806,62.1227639786737,0.));
#1207=CARTESIAN_POINT('',(43.6194504408806,22.3227639786737,1.5));
#1208=CARTESIAN_POINT('',(43.6194504408806,22.3227639786737,0.));
#1209=CARTESIAN_POINT('',(43.6194504408806,12.5227639786737,1.5));
#1210=CARTESIAN_POINT('',(43.6194504408806,39.7727639786737,1.5));
#1211=CARTESIAN_POINT('',(43.6194504408806,12.5227639786737,3.));
#1212=CARTESIAN_POINT('',(43.6194504408806,12.5227639786737,0.));
#1213=CARTESIAN_POINT('',(43.6194504408806,62.1227639786737,3.));
#1214=CARTESIAN_POINT('',(43.6194504408806,62.1227639786737,3.));
#1215=CARTESIAN_POINT('',(43.6194504408806,62.1227639786737,0.));
#1216=CARTESIAN_POINT('Origin',(43.6194504408806,22.3227639786737,0.));
#1217=CARTESIAN_POINT('',(39.1194504408806,22.3227639786737,0.));
#1218=CARTESIAN_POINT('',(39.1194504408806,22.3227639786737,0.));
#1219=CARTESIAN_POINT('',(39.1194504408806,22.3227639786737,1.5));
#1220=CARTESIAN_POINT('',(39.1194504408806,22.3227639786737,0.));
#1221=CARTESIAN_POINT('',(39.1194504408806,22.3227639786737,1.5));
#1222=CARTESIAN_POINT('Origin',(39.1194504408806,22.3227639786737,0.));
#1223=CARTESIAN_POINT('',(39.1194504408806,12.5227639786737,0.));
#1224=CARTESIAN_POINT('',(39.1194504408806,12.5227639786737,0.));
#1225=CARTESIAN_POINT('',(39.1194504408806,12.5227639786737,1.5));
#1226=CARTESIAN_POINT('',(39.1194504408806,12.5227639786737,0.));
#1227=CARTESIAN_POINT('',(39.1194504408806,12.5227639786737,1.5));
#1228=CARTESIAN_POINT('Origin',(41.3694504408806,17.4227639786737,1.5));
#1229=CARTESIAN_POINT('',(89.1194504408806,12.5227639786737,1.5));
#1230=CARTESIAN_POINT('Origin',(74.1194504408806,37.3227639786737,0.));
#1231=CARTESIAN_POINT('',(89.1194504408806,37.3227639786737,0.4));
#1232=CARTESIAN_POINT('',(74.1194504408806,37.3227639786737,0.4));
#1233=CARTESIAN_POINT('',(74.1194504408806,37.3227639786737,0.4));
#1234=CARTESIAN_POINT('',(89.1194504408806,37.3227639786737,1.));
#1235=CARTESIAN_POINT('',(89.1194504408806,37.3227639786737,0.));
#1236=CARTESIAN_POINT('',(74.1194504408806,37.3227639786737,1.));
#1237=CARTESIAN_POINT('',(74.1194504408806,37.3227639786737,1.));
#1238=CARTESIAN_POINT('',(74.1194504408806,37.3227639786737,0.));
#1239=CARTESIAN_POINT('Origin',(81.6194504408806,49.7227639786737,1.));
#1240=CARTESIAN_POINT('',(74.1194504408806,62.1227639786737,1.));
#1241=CARTESIAN_POINT('',(74.1194504408806,31.1227639786737,1.));
#1242=CARTESIAN_POINT('',(89.1194504408806,62.1227639786737,1.));
#1243=CARTESIAN_POINT('',(89.1194504408806,62.1227639786737,1.));
#1244=CARTESIAN_POINT('',(39.1194504408806,62.1227639786737,1.));
#1245=CARTESIAN_POINT('Origin',(89.1194504408806,12.5227639786737,0.));
#1246=CARTESIAN_POINT('',(89.1194504408806,62.1227639786737,0.));
#1247=CARTESIAN_POINT('',(89.1194504408806,12.5227639786737,0.));
#1248=CARTESIAN_POINT('',(89.1194504408806,62.1227639786737,0.));
#1249=CARTESIAN_POINT('',(89.1194504408806,62.1227639786737,0.));
#1250=CARTESIAN_POINT('',(89.1194504408806,12.5227639786737,0.4));
#1251=CARTESIAN_POINT('',(89.1194504408806,62.1227639786737,0.4));
#1252=CARTESIAN_POINT('',(89.1194504408806,12.5227639786737,0.));
#1253=CARTESIAN_POINT('Origin',(81.6194504408806,24.9227639786737,0.4));
#1254=CARTESIAN_POINT('',(74.1194504408806,12.5227639786737,0.4));
#1255=CARTESIAN_POINT('',(74.1194504408806,18.7227639786737,0.4));
#1256=CARTESIAN_POINT('',(89.1194504408806,12.5227639786737,0.4));
#1257=CARTESIAN_POINT('Origin',(66.6194504408806,49.7227639786737,2.));
#1258=CARTESIAN_POINT('',(59.1194504408806,37.3227639786737,2.));
#1259=CARTESIAN_POINT('',(59.1194504408806,62.1227639786737,2.));
#1260=CARTESIAN_POINT('',(59.1194504408806,43.5227639786737,2.));
#1261=CARTESIAN_POINT('',(74.1194504408806,37.3227639786737,2.));
#1262=CARTESIAN_POINT('',(70.3694504408806,37.3227639786737,2.));
#1263=CARTESIAN_POINT('',(74.1194504408806,62.1227639786737,2.));
#1264=CARTESIAN_POINT('',(74.1194504408806,62.1227639786737,2.));
#1265=CARTESIAN_POINT('',(39.1194504408806,62.1227639786737,2.));
#1266=CARTESIAN_POINT('Origin',(74.1194504408806,37.3227639786737,0.));
#1267=CARTESIAN_POINT('',(59.1194504408806,37.3227639786737,3.));
#1268=CARTESIAN_POINT('',(59.1194504408806,37.3227639786737,0.));
#1269=CARTESIAN_POINT('',(74.1194504408806,37.3227639786737,3.));
#1270=CARTESIAN_POINT('',(74.1194504408806,37.3227639786737,3.));
#1271=CARTESIAN_POINT('',(74.1194504408806,37.3227639786737,0.));
#1272=CARTESIAN_POINT('Origin',(48.1194504408806,17.0227639786737,0.));
#1273=CARTESIAN_POINT('',(45.6194504408806,17.0227639786737,3.));
#1274=CARTESIAN_POINT('Origin',(48.1194504408806,17.0227639786737,3.));
#1275=CARTESIAN_POINT('',(45.6194504408806,17.0227639786737,0.));
#1276=CARTESIAN_POINT('',(45.6194504408806,17.0227639786737,0.));
#1277=CARTESIAN_POINT('Origin',(48.1194504408806,17.0227639786737,0.));
#1278=CARTESIAN_POINT('Origin',(48.1194504408806,57.6227639786737,0.));
#1279=CARTESIAN_POINT('',(45.6194504408806,57.6227639786737,3.));
#1280=CARTESIAN_POINT('Origin',(48.1194504408806,57.6227639786737,3.));
#1281=CARTESIAN_POINT('',(45.6194504408806,57.6227639786737,0.));
#1282=CARTESIAN_POINT('',(45.6194504408806,57.6227639786737,0.));
#1283=CARTESIAN_POINT('Origin',(48.1194504408806,57.6227639786737,0.));
#1284=CARTESIAN_POINT('Origin',(43.6194504408806,12.5227639786737,0.));
#1285=CARTESIAN_POINT('',(89.1194504408806,12.5227639786737,0.));
#1286=CARTESIAN_POINT('',(74.1194504408806,12.5227639786737,3.));
#1287=CARTESIAN_POINT('',(74.1194504408806,12.5227639786737,0.));
#1288=CARTESIAN_POINT('',(89.1194504408806,12.5227639786737,3.));
#1289=CARTESIAN_POINT('Origin',(59.1194504408806,62.1227639786737,0.));
#1290=CARTESIAN_POINT('',(39.1194504408806,62.1227639786737,0.));
#1291=CARTESIAN_POINT('',(59.1194504408806,62.1227639786737,3.));
#1292=CARTESIAN_POINT('',(39.1194504408806,62.1227639786737,3.));
#1293=CARTESIAN_POINT('',(59.1194504408806,62.1227639786737,0.));
#1294=CARTESIAN_POINT('',(74.1194504408806,62.1227639786737,0.));
#1295=CARTESIAN_POINT('Origin',(59.1194504408806,37.3227639786737,0.));
#1296=CARTESIAN_POINT('',(59.1194504408806,62.1227639786737,3.));
#1297=CARTESIAN_POINT('Origin',(74.1194504408806,12.5227639786737,0.));
#1298=CARTESIAN_POINT('',(74.1194504408806,62.1227639786737,3.));
#1299=CARTESIAN_POINT('Origin',(58.8694504408806,37.3227639786737,3.));
#1300=CARTESIAN_POINT('Origin',(58.8694504408806,37.3227639786737,0.));
#1301=UNCERTAINTY_MEASURE_WITH_UNIT(LENGTH_MEASURE(0.01),#1305,
'DISTANCE_ACCURACY_VALUE',
'Maximum model space distance between geometric entities at asserted c
onnectivities');
#1302=UNCERTAINTY_MEASURE_WITH_UNIT(LENGTH_MEASURE(0.01),#1305,
'DISTANCE_ACCURACY_VALUE',
'Maximum model space distance between geometric entities at asserted c
onnectivities');
#1303=(
GEOMETRIC_REPRESENTATION_CONTEXT(3)
GLOBAL_UNCERTAINTY_ASSIGNED_CONTEXT((#1301))
GLOBAL_UNIT_ASSIGNED_CONTEXT((#1305,#1307,#1308))
REPRESENTATION_CONTEXT('','3D')
);
#1304=(
GEOMETRIC_REPRESENTATION_CONTEXT(3)
GLOBAL_UNCERTAINTY_ASSIGNED_CONTEXT((#1302))
GLOBAL_UNIT_ASSIGNED_CONTEXT((#1305,#1307,#1308))
REPRESENTATION_CONTEXT('','3D')
);
#1305=(
LENGTH_UNIT()
NAMED_UNIT(*)
SI_UNIT(.MILLI.,.METRE.)
);
#1306=(
LENGTH_UNIT()
NAMED_UNIT(*)
SI_UNIT($,.METRE.)
);
#1307=(
NAMED_UNIT(*)
PLANE_ANGLE_UNIT()
SI_UNIT($,.RADIAN.)
);
#1308=(
NAMED_UNIT(*)
SI_UNIT($,.STERADIAN.)
SOLID_ANGLE_UNIT()
);
#1309=SHAPE_DEFINITION_REPRESENTATION(#1310,#1311);
#1310=PRODUCT_DEFINITION_SHAPE('',$,#1313);
#1311=SHAPE_REPRESENTATION('',(#829),#1303);
#1312=PRODUCT_DEFINITION_CONTEXT('part definition',#1317,'design');
#1313=PRODUCT_DEFINITION('3D Filament Swatch-60103-PC-Transparent',
'3D Filament Swatch-60103-PC-Transparent v4',#1314,#1312);
#1314=PRODUCT_DEFINITION_FORMATION('',$,#1319);
#1315=PRODUCT_RELATED_PRODUCT_CATEGORY(
'3D Filament Swatch-60103-PC-Transparent v4',
'3D Filament Swatch-60103-PC-Transparent v4',(#1319));
#1316=APPLICATION_PROTOCOL_DEFINITION('international standard',
'automotive_design',2009,#1317);
#1317=APPLICATION_CONTEXT(
'Core Data for Automotive Mechanical Design Process');
#1318=PRODUCT_CONTEXT('part definition',#1317,'mechanical');
#1319=PRODUCT('3D Filament Swatch-60103-PC-Transparent',
'3D Filament Swatch-60103-PC-Transparent v4',$,(#1318));
#1320=PRESENTATION_STYLE_ASSIGNMENT((#1321));
#1321=SURFACE_STYLE_USAGE(.BOTH.,#1322);
#1322=SURFACE_SIDE_STYLE('',(#1323));
#1323=SURFACE_STYLE_FILL_AREA(#1324);
#1324=FILL_AREA_STYLE('Acciaio - Satinato',(#1325));
#1325=FILL_AREA_STYLE_COLOUR('Acciaio - Satinato',#1326);
#1326=COLOUR_RGB('Acciaio - Satinato',0.627450980392157,0.627450980392157,
0.627450980392157);
ENDSEC;
END-ISO-10303-21;
