ISO-10303-21;
HEADER;
/* Generated by software containing ST-Developer
 * from STEP Tools, Inc. (www.steptools.com) 
 */

FILE_DESCRIPTION(
/* description */ (''),
/* implementation_level */ '2;1');

FILE_NAME(
/* name */ 'Swatch Base.step',
/* time_stamp */ '2026-05-11T22:27:01+02:00',
/* author */ (''),
/* organization */ (''),
/* preprocessor_version */ 'ST-DEVELOPER v20.1',
/* originating_system */ 'Autodesk Translation Framework v15.8.0.0',
/* authorisation */ '');

FILE_SCHEMA (('AUTOMOTIVE_DESIGN { 1 0 10303 214 3 1 1 }'));
ENDSEC;

DATA;
#10=MECHANICAL_DESIGN_GEOMETRIC_PRESENTATION_REPRESENTATION('',(#13),#851);
#11=SHAPE_REPRESENTATION_RELATIONSHIP('SRR','None',#857,#12);
#12=ADVANCED_BREP_SHAPE_REPRESENTATION('',(#14),#850);
#13=STYLED_ITEM('',(#866),#14);
#14=MANIFOLD_SOLID_BREP('Corpo1',#539);
#15=FACE_BOUND('',#54,.T.);
#16=FACE_BOUND('',#64,.T.);
#17=FACE_OUTER_BOUND('',#45,.T.);
#18=FACE_OUTER_BOUND('',#46,.T.);
#19=FACE_OUTER_BOUND('',#47,.T.);
#20=FACE_OUTER_BOUND('',#48,.T.);
#21=FACE_OUTER_BOUND('',#49,.T.);
#22=FACE_OUTER_BOUND('',#50,.T.);
#23=FACE_OUTER_BOUND('',#51,.T.);
#24=FACE_OUTER_BOUND('',#52,.T.);
#25=FACE_OUTER_BOUND('',#53,.T.);
#26=FACE_OUTER_BOUND('',#55,.T.);
#27=FACE_OUTER_BOUND('',#56,.T.);
#28=FACE_OUTER_BOUND('',#57,.T.);
#29=FACE_OUTER_BOUND('',#58,.T.);
#30=FACE_OUTER_BOUND('',#59,.T.);
#31=FACE_OUTER_BOUND('',#60,.T.);
#32=FACE_OUTER_BOUND('',#61,.T.);
#33=FACE_OUTER_BOUND('',#62,.T.);
#34=FACE_OUTER_BOUND('',#63,.T.);
#35=FACE_OUTER_BOUND('',#65,.T.);
#36=FACE_OUTER_BOUND('',#66,.T.);
#37=FACE_OUTER_BOUND('',#67,.T.);
#38=FACE_OUTER_BOUND('',#68,.T.);
#39=FACE_OUTER_BOUND('',#69,.T.);
#40=FACE_OUTER_BOUND('',#70,.T.);
#41=FACE_OUTER_BOUND('',#71,.T.);
#42=FACE_OUTER_BOUND('',#72,.T.);
#43=FACE_OUTER_BOUND('',#73,.T.);
#44=FACE_OUTER_BOUND('',#74,.T.);
#45=EDGE_LOOP('',(#339,#340,#341,#342));
#46=EDGE_LOOP('',(#343,#344,#345,#346));
#47=EDGE_LOOP('',(#347,#348,#349,#350));
#48=EDGE_LOOP('',(#351,#352,#353,#354));
#49=EDGE_LOOP('',(#355,#356,#357,#358));
#50=EDGE_LOOP('',(#359,#360,#361,#362));
#51=EDGE_LOOP('',(#363,#364,#365,#366,#367,#368,#369,#370));
#52=EDGE_LOOP('',(#371,#372,#373,#374,#375,#376,#377,#378));
#53=EDGE_LOOP('',(#379,#380,#381,#382));
#54=EDGE_LOOP('',(#383,#384,#385,#386));
#55=EDGE_LOOP('',(#387,#388,#389,#390,#391,#392,#393,#394,#395,#396,#397,
#398));
#56=EDGE_LOOP('',(#399,#400,#401,#402));
#57=EDGE_LOOP('',(#403,#404,#405,#406));
#58=EDGE_LOOP('',(#407,#408,#409,#410,#411,#412,#413,#414,#415,#416,#417,
#418));
#59=EDGE_LOOP('',(#419,#420,#421,#422));
#60=EDGE_LOOP('',(#423,#424,#425,#426));
#61=EDGE_LOOP('',(#427,#428,#429,#430));
#62=EDGE_LOOP('',(#431,#432,#433,#434));
#63=EDGE_LOOP('',(#435,#436,#437,#438));
#64=EDGE_LOOP('',(#439,#440,#441,#442));
#65=EDGE_LOOP('',(#443,#444,#445,#446));
#66=EDGE_LOOP('',(#447,#448,#449,#450));
#67=EDGE_LOOP('',(#451,#452,#453,#454));
#68=EDGE_LOOP('',(#455,#456,#457,#458));
#69=EDGE_LOOP('',(#459,#460,#461,#462));
#70=EDGE_LOOP('',(#463,#464,#465,#466));
#71=EDGE_LOOP('',(#467,#468,#469,#470));
#72=EDGE_LOOP('',(#471,#472,#473,#474));
#73=EDGE_LOOP('',(#475,#476,#477,#478));
#74=EDGE_LOOP('',(#479,#480,#481,#482));
#75=LINE('',#703,#147);
#76=LINE('',#705,#148);
#77=LINE('',#707,#149);
#78=LINE('',#708,#150);
#79=LINE('',#711,#151);
#80=LINE('',#713,#152);
#81=LINE('',#714,#153);
#82=LINE('',#717,#154);
#83=LINE('',#719,#155);
#84=LINE('',#720,#156);
#85=LINE('',#724,#157);
#86=LINE('',#726,#158);
#87=LINE('',#728,#159);
#88=LINE('',#729,#160);
#89=LINE('',#732,#161);
#90=LINE('',#734,#162);
#91=LINE('',#735,#163);
#92=LINE('',#738,#164);
#93=LINE('',#740,#165);
#94=LINE('',#741,#166);
#95=LINE('',#743,#167);
#96=LINE('',#744,#168);
#97=LINE('',#746,#169);
#98=LINE('',#747,#170);
#99=LINE('',#751,#171);
#100=LINE('',#753,#172);
#101=LINE('',#755,#173);
#102=LINE('',#756,#174);
#103=LINE('',#760,#175);
#104=LINE('',#762,#176);
#105=LINE('',#764,#177);
#106=LINE('',#766,#178);
#107=LINE('',#768,#179);
#108=LINE('',#770,#180);
#109=LINE('',#772,#181);
#110=LINE('',#774,#182);
#111=LINE('',#776,#183);
#112=LINE('',#777,#184);
#113=LINE('',#778,#185);
#114=LINE('',#781,#186);
#115=LINE('',#782,#187);
#116=LINE('',#785,#188);
#117=LINE('',#786,#189);
#118=LINE('',#789,#190);
#119=LINE('',#791,#191);
#120=LINE('',#793,#192);
#121=LINE('',#795,#193);
#122=LINE('',#797,#194);
#123=LINE('',#799,#195);
#124=LINE('',#801,#196);
#125=LINE('',#803,#197);
#126=LINE('',#804,#198);
#127=LINE('',#808,#199);
#128=LINE('',#810,#200);
#129=LINE('',#812,#201);
#130=LINE('',#813,#202);
#131=LINE('',#816,#203);
#132=LINE('',#818,#204);
#133=LINE('',#819,#205);
#134=LINE('',#822,#206);
#135=LINE('',#824,#207);
#136=LINE('',#825,#208);
#137=LINE('',#827,#209);
#138=LINE('',#828,#210);
#139=LINE('',#831,#211);
#140=LINE('',#832,#212);
#141=LINE('',#834,#213);
#142=LINE('',#835,#214);
#143=LINE('',#839,#215);
#144=LINE('',#841,#216);
#145=LINE('',#843,#217);
#146=LINE('',#844,#218);
#147=VECTOR('',#573,10.);
#148=VECTOR('',#574,10.);
#149=VECTOR('',#575,10.);
#150=VECTOR('',#576,10.);
#151=VECTOR('',#579,10.);
#152=VECTOR('',#580,10.);
#153=VECTOR('',#581,10.);
#154=VECTOR('',#584,10.);
#155=VECTOR('',#585,10.);
#156=VECTOR('',#586,10.);
#157=VECTOR('',#589,10.);
#158=VECTOR('',#590,10.);
#159=VECTOR('',#591,10.);
#160=VECTOR('',#592,10.);
#161=VECTOR('',#595,10.);
#162=VECTOR('',#596,10.);
#163=VECTOR('',#597,10.);
#164=VECTOR('',#600,10.);
#165=VECTOR('',#601,10.);
#166=VECTOR('',#602,10.);
#167=VECTOR('',#605,10.);
#168=VECTOR('',#606,10.);
#169=VECTOR('',#609,10.);
#170=VECTOR('',#610,10.);
#171=VECTOR('',#613,10.);
#172=VECTOR('',#614,10.);
#173=VECTOR('',#615,10.);
#174=VECTOR('',#616,10.);
#175=VECTOR('',#619,10.);
#176=VECTOR('',#620,10.);
#177=VECTOR('',#621,10.);
#178=VECTOR('',#622,10.);
#179=VECTOR('',#623,10.);
#180=VECTOR('',#624,10.);
#181=VECTOR('',#625,10.);
#182=VECTOR('',#626,10.);
#183=VECTOR('',#627,10.);
#184=VECTOR('',#628,10.);
#185=VECTOR('',#629,10.);
#186=VECTOR('',#632,10.);
#187=VECTOR('',#633,10.);
#188=VECTOR('',#636,10.);
#189=VECTOR('',#637,10.);
#190=VECTOR('',#640,10.);
#191=VECTOR('',#641,10.);
#192=VECTOR('',#642,10.);
#193=VECTOR('',#643,10.);
#194=VECTOR('',#644,10.);
#195=VECTOR('',#645,10.);
#196=VECTOR('',#646,10.);
#197=VECTOR('',#647,10.);
#198=VECTOR('',#648,10.);
#199=VECTOR('',#651,10.);
#200=VECTOR('',#652,10.);
#201=VECTOR('',#653,10.);
#202=VECTOR('',#654,10.);
#203=VECTOR('',#657,10.);
#204=VECTOR('',#658,10.);
#205=VECTOR('',#659,10.);
#206=VECTOR('',#662,10.);
#207=VECTOR('',#663,10.);
#208=VECTOR('',#664,10.);
#209=VECTOR('',#667,10.);
#210=VECTOR('',#668,10.);
#211=VECTOR('',#673,10.);
#212=VECTOR('',#674,10.);
#213=VECTOR('',#677,10.);
#214=VECTOR('',#678,10.);
#215=VECTOR('',#685,10.);
#216=VECTOR('',#688,10.);
#217=VECTOR('',#691,10.);
#218=VECTOR('',#692,10.);
#219=VERTEX_POINT('',#701);
#220=VERTEX_POINT('',#702);
#221=VERTEX_POINT('',#704);
#222=VERTEX_POINT('',#706);
#223=VERTEX_POINT('',#710);
#224=VERTEX_POINT('',#712);
#225=VERTEX_POINT('',#716);
#226=VERTEX_POINT('',#718);
#227=VERTEX_POINT('',#722);
#228=VERTEX_POINT('',#723);
#229=VERTEX_POINT('',#725);
#230=VERTEX_POINT('',#727);
#231=VERTEX_POINT('',#731);
#232=VERTEX_POINT('',#733);
#233=VERTEX_POINT('',#737);
#234=VERTEX_POINT('',#739);
#235=VERTEX_POINT('',#749);
#236=VERTEX_POINT('',#750);
#237=VERTEX_POINT('',#752);
#238=VERTEX_POINT('',#754);
#239=VERTEX_POINT('',#758);
#240=VERTEX_POINT('',#759);
#241=VERTEX_POINT('',#761);
#242=VERTEX_POINT('',#763);
#243=VERTEX_POINT('',#765);
#244=VERTEX_POINT('',#767);
#245=VERTEX_POINT('',#769);
#246=VERTEX_POINT('',#771);
#247=VERTEX_POINT('',#773);
#248=VERTEX_POINT('',#775);
#249=VERTEX_POINT('',#780);
#250=VERTEX_POINT('',#784);
#251=VERTEX_POINT('',#788);
#252=VERTEX_POINT('',#790);
#253=VERTEX_POINT('',#792);
#254=VERTEX_POINT('',#794);
#255=VERTEX_POINT('',#796);
#256=VERTEX_POINT('',#798);
#257=VERTEX_POINT('',#800);
#258=VERTEX_POINT('',#802);
#259=VERTEX_POINT('',#806);
#260=VERTEX_POINT('',#807);
#261=VERTEX_POINT('',#809);
#262=VERTEX_POINT('',#811);
#263=VERTEX_POINT('',#815);
#264=VERTEX_POINT('',#817);
#265=VERTEX_POINT('',#821);
#266=VERTEX_POINT('',#823);
#267=EDGE_CURVE('',#219,#220,#75,.T.);
#268=EDGE_CURVE('',#219,#221,#76,.T.);
#269=EDGE_CURVE('',#222,#221,#77,.T.);
#270=EDGE_CURVE('',#220,#222,#78,.T.);
#271=EDGE_CURVE('',#221,#223,#79,.T.);
#272=EDGE_CURVE('',#224,#223,#80,.T.);
#273=EDGE_CURVE('',#224,#222,#81,.T.);
#274=EDGE_CURVE('',#225,#223,#82,.T.);
#275=EDGE_CURVE('',#226,#225,#83,.T.);
#276=EDGE_CURVE('',#226,#224,#84,.T.);
#277=EDGE_CURVE('',#227,#228,#85,.T.);
#278=EDGE_CURVE('',#228,#229,#86,.T.);
#279=EDGE_CURVE('',#230,#229,#87,.T.);
#280=EDGE_CURVE('',#227,#230,#88,.T.);
#281=EDGE_CURVE('',#229,#231,#89,.T.);
#282=EDGE_CURVE('',#232,#231,#90,.T.);
#283=EDGE_CURVE('',#232,#230,#91,.T.);
#284=EDGE_CURVE('',#233,#231,#92,.T.);
#285=EDGE_CURVE('',#234,#233,#93,.T.);
#286=EDGE_CURVE('',#234,#232,#94,.T.);
#287=EDGE_CURVE('',#225,#234,#95,.T.);
#288=EDGE_CURVE('',#219,#227,#96,.T.);
#289=EDGE_CURVE('',#233,#226,#97,.T.);
#290=EDGE_CURVE('',#220,#228,#98,.T.);
#291=EDGE_CURVE('',#235,#236,#99,.T.);
#292=EDGE_CURVE('',#236,#237,#100,.T.);
#293=EDGE_CURVE('',#237,#238,#101,.T.);
#294=EDGE_CURVE('',#238,#235,#102,.T.);
#295=EDGE_CURVE('',#239,#240,#103,.T.);
#296=EDGE_CURVE('',#239,#241,#104,.T.);
#297=EDGE_CURVE('',#242,#241,#105,.T.);
#298=EDGE_CURVE('',#243,#242,#106,.T.);
#299=EDGE_CURVE('',#244,#243,#107,.T.);
#300=EDGE_CURVE('',#244,#245,#108,.T.);
#301=EDGE_CURVE('',#246,#245,#109,.T.);
#302=EDGE_CURVE('',#247,#246,#110,.T.);
#303=EDGE_CURVE('',#248,#247,#111,.T.);
#304=EDGE_CURVE('',#248,#236,#112,.T.);
#305=EDGE_CURVE('',#240,#235,#113,.T.);
#306=EDGE_CURVE('',#249,#248,#114,.T.);
#307=EDGE_CURVE('',#249,#237,#115,.T.);
#308=EDGE_CURVE('',#240,#250,#116,.T.);
#309=EDGE_CURVE('',#250,#238,#117,.T.);
#310=EDGE_CURVE('',#250,#251,#118,.T.);
#311=EDGE_CURVE('',#252,#249,#119,.T.);
#312=EDGE_CURVE('',#252,#253,#120,.T.);
#313=EDGE_CURVE('',#254,#253,#121,.T.);
#314=EDGE_CURVE('',#255,#254,#122,.T.);
#315=EDGE_CURVE('',#256,#255,#123,.T.);
#316=EDGE_CURVE('',#256,#257,#124,.T.);
#317=EDGE_CURVE('',#258,#257,#125,.T.);
#318=EDGE_CURVE('',#251,#258,#126,.T.);
#319=EDGE_CURVE('',#259,#260,#127,.T.);
#320=EDGE_CURVE('',#260,#261,#128,.T.);
#321=EDGE_CURVE('',#262,#261,#129,.T.);
#322=EDGE_CURVE('',#259,#262,#130,.T.);
#323=EDGE_CURVE('',#263,#259,#131,.T.);
#324=EDGE_CURVE('',#264,#262,#132,.T.);
#325=EDGE_CURVE('',#263,#264,#133,.T.);
#326=EDGE_CURVE('',#265,#263,#134,.T.);
#327=EDGE_CURVE('',#266,#264,#135,.T.);
#328=EDGE_CURVE('',#265,#266,#136,.T.);
#329=EDGE_CURVE('',#260,#265,#137,.T.);
#330=EDGE_CURVE('',#261,#266,#138,.T.);
#331=EDGE_CURVE('',#251,#239,#139,.T.);
#332=EDGE_CURVE('',#241,#258,#140,.T.);
#333=EDGE_CURVE('',#243,#256,#141,.T.);
#334=EDGE_CURVE('',#257,#242,#142,.T.);
#335=EDGE_CURVE('',#255,#244,#143,.T.);
#336=EDGE_CURVE('',#245,#254,#144,.T.);
#337=EDGE_CURVE('',#247,#252,#145,.T.);
#338=EDGE_CURVE('',#253,#246,#146,.T.);
#339=ORIENTED_EDGE('',*,*,#267,.F.);
#340=ORIENTED_EDGE('',*,*,#268,.T.);
#341=ORIENTED_EDGE('',*,*,#269,.F.);
#342=ORIENTED_EDGE('',*,*,#270,.F.);
#343=ORIENTED_EDGE('',*,*,#271,.T.);
#344=ORIENTED_EDGE('',*,*,#272,.F.);
#345=ORIENTED_EDGE('',*,*,#273,.T.);
#346=ORIENTED_EDGE('',*,*,#269,.T.);
#347=ORIENTED_EDGE('',*,*,#272,.T.);
#348=ORIENTED_EDGE('',*,*,#274,.F.);
#349=ORIENTED_EDGE('',*,*,#275,.F.);
#350=ORIENTED_EDGE('',*,*,#276,.T.);
#351=ORIENTED_EDGE('',*,*,#277,.T.);
#352=ORIENTED_EDGE('',*,*,#278,.T.);
#353=ORIENTED_EDGE('',*,*,#279,.F.);
#354=ORIENTED_EDGE('',*,*,#280,.F.);
#355=ORIENTED_EDGE('',*,*,#279,.T.);
#356=ORIENTED_EDGE('',*,*,#281,.T.);
#357=ORIENTED_EDGE('',*,*,#282,.F.);
#358=ORIENTED_EDGE('',*,*,#283,.T.);
#359=ORIENTED_EDGE('',*,*,#282,.T.);
#360=ORIENTED_EDGE('',*,*,#284,.F.);
#361=ORIENTED_EDGE('',*,*,#285,.F.);
#362=ORIENTED_EDGE('',*,*,#286,.T.);
#363=ORIENTED_EDGE('',*,*,#287,.F.);
#364=ORIENTED_EDGE('',*,*,#274,.T.);
#365=ORIENTED_EDGE('',*,*,#271,.F.);
#366=ORIENTED_EDGE('',*,*,#268,.F.);
#367=ORIENTED_EDGE('',*,*,#288,.T.);
#368=ORIENTED_EDGE('',*,*,#280,.T.);
#369=ORIENTED_EDGE('',*,*,#283,.F.);
#370=ORIENTED_EDGE('',*,*,#286,.F.);
#371=ORIENTED_EDGE('',*,*,#289,.F.);
#372=ORIENTED_EDGE('',*,*,#284,.T.);
#373=ORIENTED_EDGE('',*,*,#281,.F.);
#374=ORIENTED_EDGE('',*,*,#278,.F.);
#375=ORIENTED_EDGE('',*,*,#290,.F.);
#376=ORIENTED_EDGE('',*,*,#270,.T.);
#377=ORIENTED_EDGE('',*,*,#273,.F.);
#378=ORIENTED_EDGE('',*,*,#276,.F.);
#379=ORIENTED_EDGE('',*,*,#290,.T.);
#380=ORIENTED_EDGE('',*,*,#277,.F.);
#381=ORIENTED_EDGE('',*,*,#288,.F.);
#382=ORIENTED_EDGE('',*,*,#267,.T.);
#383=ORIENTED_EDGE('',*,*,#291,.T.);
#384=ORIENTED_EDGE('',*,*,#292,.T.);
#385=ORIENTED_EDGE('',*,*,#293,.T.);
#386=ORIENTED_EDGE('',*,*,#294,.T.);
#387=ORIENTED_EDGE('',*,*,#295,.F.);
#388=ORIENTED_EDGE('',*,*,#296,.T.);
#389=ORIENTED_EDGE('',*,*,#297,.F.);
#390=ORIENTED_EDGE('',*,*,#298,.F.);
#391=ORIENTED_EDGE('',*,*,#299,.F.);
#392=ORIENTED_EDGE('',*,*,#300,.T.);
#393=ORIENTED_EDGE('',*,*,#301,.F.);
#394=ORIENTED_EDGE('',*,*,#302,.F.);
#395=ORIENTED_EDGE('',*,*,#303,.F.);
#396=ORIENTED_EDGE('',*,*,#304,.T.);
#397=ORIENTED_EDGE('',*,*,#291,.F.);
#398=ORIENTED_EDGE('',*,*,#305,.F.);
#399=ORIENTED_EDGE('',*,*,#306,.F.);
#400=ORIENTED_EDGE('',*,*,#307,.T.);
#401=ORIENTED_EDGE('',*,*,#292,.F.);
#402=ORIENTED_EDGE('',*,*,#304,.F.);
#403=ORIENTED_EDGE('',*,*,#308,.F.);
#404=ORIENTED_EDGE('',*,*,#305,.T.);
#405=ORIENTED_EDGE('',*,*,#294,.F.);
#406=ORIENTED_EDGE('',*,*,#309,.F.);
#407=ORIENTED_EDGE('',*,*,#310,.F.);
#408=ORIENTED_EDGE('',*,*,#309,.T.);
#409=ORIENTED_EDGE('',*,*,#293,.F.);
#410=ORIENTED_EDGE('',*,*,#307,.F.);
#411=ORIENTED_EDGE('',*,*,#311,.F.);
#412=ORIENTED_EDGE('',*,*,#312,.T.);
#413=ORIENTED_EDGE('',*,*,#313,.F.);
#414=ORIENTED_EDGE('',*,*,#314,.F.);
#415=ORIENTED_EDGE('',*,*,#315,.F.);
#416=ORIENTED_EDGE('',*,*,#316,.T.);
#417=ORIENTED_EDGE('',*,*,#317,.F.);
#418=ORIENTED_EDGE('',*,*,#318,.F.);
#419=ORIENTED_EDGE('',*,*,#319,.T.);
#420=ORIENTED_EDGE('',*,*,#320,.T.);
#421=ORIENTED_EDGE('',*,*,#321,.F.);
#422=ORIENTED_EDGE('',*,*,#322,.F.);
#423=ORIENTED_EDGE('',*,*,#323,.T.);
#424=ORIENTED_EDGE('',*,*,#322,.T.);
#425=ORIENTED_EDGE('',*,*,#324,.F.);
#426=ORIENTED_EDGE('',*,*,#325,.F.);
#427=ORIENTED_EDGE('',*,*,#326,.T.);
#428=ORIENTED_EDGE('',*,*,#325,.T.);
#429=ORIENTED_EDGE('',*,*,#327,.F.);
#430=ORIENTED_EDGE('',*,*,#328,.F.);
#431=ORIENTED_EDGE('',*,*,#329,.T.);
#432=ORIENTED_EDGE('',*,*,#328,.T.);
#433=ORIENTED_EDGE('',*,*,#330,.F.);
#434=ORIENTED_EDGE('',*,*,#320,.F.);
#435=ORIENTED_EDGE('',*,*,#330,.T.);
#436=ORIENTED_EDGE('',*,*,#327,.T.);
#437=ORIENTED_EDGE('',*,*,#324,.T.);
#438=ORIENTED_EDGE('',*,*,#321,.T.);
#439=ORIENTED_EDGE('',*,*,#287,.T.);
#440=ORIENTED_EDGE('',*,*,#285,.T.);
#441=ORIENTED_EDGE('',*,*,#289,.T.);
#442=ORIENTED_EDGE('',*,*,#275,.T.);
#443=ORIENTED_EDGE('',*,*,#331,.F.);
#444=ORIENTED_EDGE('',*,*,#318,.T.);
#445=ORIENTED_EDGE('',*,*,#332,.F.);
#446=ORIENTED_EDGE('',*,*,#296,.F.);
#447=ORIENTED_EDGE('',*,*,#333,.F.);
#448=ORIENTED_EDGE('',*,*,#298,.T.);
#449=ORIENTED_EDGE('',*,*,#334,.F.);
#450=ORIENTED_EDGE('',*,*,#316,.F.);
#451=ORIENTED_EDGE('',*,*,#317,.T.);
#452=ORIENTED_EDGE('',*,*,#334,.T.);
#453=ORIENTED_EDGE('',*,*,#297,.T.);
#454=ORIENTED_EDGE('',*,*,#332,.T.);
#455=ORIENTED_EDGE('',*,*,#331,.T.);
#456=ORIENTED_EDGE('',*,*,#295,.T.);
#457=ORIENTED_EDGE('',*,*,#308,.T.);
#458=ORIENTED_EDGE('',*,*,#310,.T.);
#459=ORIENTED_EDGE('',*,*,#333,.T.);
#460=ORIENTED_EDGE('',*,*,#315,.T.);
#461=ORIENTED_EDGE('',*,*,#335,.T.);
#462=ORIENTED_EDGE('',*,*,#299,.T.);
#463=ORIENTED_EDGE('',*,*,#335,.F.);
#464=ORIENTED_EDGE('',*,*,#314,.T.);
#465=ORIENTED_EDGE('',*,*,#336,.F.);
#466=ORIENTED_EDGE('',*,*,#300,.F.);
#467=ORIENTED_EDGE('',*,*,#337,.F.);
#468=ORIENTED_EDGE('',*,*,#302,.T.);
#469=ORIENTED_EDGE('',*,*,#338,.F.);
#470=ORIENTED_EDGE('',*,*,#312,.F.);
#471=ORIENTED_EDGE('',*,*,#338,.T.);
#472=ORIENTED_EDGE('',*,*,#301,.T.);
#473=ORIENTED_EDGE('',*,*,#336,.T.);
#474=ORIENTED_EDGE('',*,*,#313,.T.);
#475=ORIENTED_EDGE('',*,*,#337,.T.);
#476=ORIENTED_EDGE('',*,*,#311,.T.);
#477=ORIENTED_EDGE('',*,*,#306,.T.);
#478=ORIENTED_EDGE('',*,*,#303,.T.);
#479=ORIENTED_EDGE('',*,*,#329,.F.);
#480=ORIENTED_EDGE('',*,*,#319,.F.);
#481=ORIENTED_EDGE('',*,*,#323,.F.);
#482=ORIENTED_EDGE('',*,*,#326,.F.);
#483=PLANE('',#541);
#484=PLANE('',#542);
#485=PLANE('',#543);
#486=PLANE('',#544);
#487=PLANE('',#545);
#488=PLANE('',#546);
#489=PLANE('',#547);
#490=PLANE('',#548);
#491=PLANE('',#549);
#492=PLANE('',#550);
#493=PLANE('',#551);
#494=PLANE('',#552);
#495=PLANE('',#553);
#496=PLANE('',#554);
#497=PLANE('',#555);
#498=PLANE('',#556);
#499=PLANE('',#557);
#500=PLANE('',#558);
#501=PLANE('',#559);
#502=PLANE('',#560);
#503=PLANE('',#561);
#504=PLANE('',#562);
#505=PLANE('',#563);
#506=PLANE('',#564);
#507=PLANE('',#565);
#508=PLANE('',#566);
#509=PLANE('',#567);
#510=PLANE('',#568);
#511=ADVANCED_FACE('',(#17),#483,.T.);
#512=ADVANCED_FACE('',(#18),#484,.T.);
#513=ADVANCED_FACE('',(#19),#485,.T.);
#514=ADVANCED_FACE('',(#20),#486,.T.);
#515=ADVANCED_FACE('',(#21),#487,.T.);
#516=ADVANCED_FACE('',(#22),#488,.T.);
#517=ADVANCED_FACE('',(#23),#489,.T.);
#518=ADVANCED_FACE('',(#24),#490,.T.);
#519=ADVANCED_FACE('',(#25,#15),#491,.T.);
#520=ADVANCED_FACE('',(#26),#492,.T.);
#521=ADVANCED_FACE('',(#27),#493,.T.);
#522=ADVANCED_FACE('',(#28),#494,.T.);
#523=ADVANCED_FACE('',(#29),#495,.T.);
#524=ADVANCED_FACE('',(#30),#496,.T.);
#525=ADVANCED_FACE('',(#31),#497,.T.);
#526=ADVANCED_FACE('',(#32),#498,.T.);
#527=ADVANCED_FACE('',(#33),#499,.T.);
#528=ADVANCED_FACE('',(#34,#16),#500,.T.);
#529=ADVANCED_FACE('',(#35),#501,.T.);
#530=ADVANCED_FACE('',(#36),#502,.T.);
#531=ADVANCED_FACE('',(#37),#503,.T.);
#532=ADVANCED_FACE('',(#38),#504,.T.);
#533=ADVANCED_FACE('',(#39),#505,.T.);
#534=ADVANCED_FACE('',(#40),#506,.T.);
#535=ADVANCED_FACE('',(#41),#507,.T.);
#536=ADVANCED_FACE('',(#42),#508,.T.);
#537=ADVANCED_FACE('',(#43),#509,.T.);
#538=ADVANCED_FACE('',(#44),#510,.F.);
#539=CLOSED_SHELL('',(#511,#512,#513,#514,#515,#516,#517,#518,#519,#520,
#521,#522,#523,#524,#525,#526,#527,#528,#529,#530,#531,#532,#533,#534,#535,
#536,#537,#538));
#540=AXIS2_PLACEMENT_3D('',#699,#569,#570);
#541=AXIS2_PLACEMENT_3D('',#700,#571,#572);
#542=AXIS2_PLACEMENT_3D('',#709,#577,#578);
#543=AXIS2_PLACEMENT_3D('',#715,#582,#583);
#544=AXIS2_PLACEMENT_3D('',#721,#587,#588);
#545=AXIS2_PLACEMENT_3D('',#730,#593,#594);
#546=AXIS2_PLACEMENT_3D('',#736,#598,#599);
#547=AXIS2_PLACEMENT_3D('',#742,#603,#604);
#548=AXIS2_PLACEMENT_3D('',#745,#607,#608);
#549=AXIS2_PLACEMENT_3D('',#748,#611,#612);
#550=AXIS2_PLACEMENT_3D('',#757,#617,#618);
#551=AXIS2_PLACEMENT_3D('',#779,#630,#631);
#552=AXIS2_PLACEMENT_3D('',#783,#634,#635);
#553=AXIS2_PLACEMENT_3D('',#787,#638,#639);
#554=AXIS2_PLACEMENT_3D('',#805,#649,#650);
#555=AXIS2_PLACEMENT_3D('',#814,#655,#656);
#556=AXIS2_PLACEMENT_3D('',#820,#660,#661);
#557=AXIS2_PLACEMENT_3D('',#826,#665,#666);
#558=AXIS2_PLACEMENT_3D('',#829,#669,#670);
#559=AXIS2_PLACEMENT_3D('',#830,#671,#672);
#560=AXIS2_PLACEMENT_3D('',#833,#675,#676);
#561=AXIS2_PLACEMENT_3D('',#836,#679,#680);
#562=AXIS2_PLACEMENT_3D('',#837,#681,#682);
#563=AXIS2_PLACEMENT_3D('',#838,#683,#684);
#564=AXIS2_PLACEMENT_3D('',#840,#686,#687);
#565=AXIS2_PLACEMENT_3D('',#842,#689,#690);
#566=AXIS2_PLACEMENT_3D('',#845,#693,#694);
#567=AXIS2_PLACEMENT_3D('',#846,#695,#696);
#568=AXIS2_PLACEMENT_3D('',#847,#697,#698);
#569=DIRECTION('axis',(0.,0.,1.));
#570=DIRECTION('refdir',(1.,0.,0.));
#571=DIRECTION('center_axis',(3.38999396832109E-16,1.,0.));
#572=DIRECTION('ref_axis',(1.,-3.38999396832109E-16,0.));
#573=DIRECTION('',(-1.,3.38999396832109E-16,0.));
#574=DIRECTION('',(0.,0.,-1.));
#575=DIRECTION('',(1.,-3.38999396832109E-16,0.));
#576=DIRECTION('',(0.,0.,-1.));
#577=DIRECTION('center_axis',(0.,0.,-1.));
#578=DIRECTION('ref_axis',(-1.,0.,0.));
#579=DIRECTION('',(0.,-1.,0.));
#580=DIRECTION('',(1.,-1.69499698416054E-16,0.));
#581=DIRECTION('',(0.,1.,0.));
#582=DIRECTION('center_axis',(1.69499698416054E-16,1.,0.));
#583=DIRECTION('ref_axis',(-1.,1.69499698416054E-16,0.));
#584=DIRECTION('',(0.,0.,1.));
#585=DIRECTION('',(1.,-1.69499698416054E-16,0.));
#586=DIRECTION('',(0.,0.,1.));
#587=DIRECTION('center_axis',(0.,-1.,0.));
#588=DIRECTION('ref_axis',(-1.,0.,0.));
#589=DIRECTION('',(-1.,0.,0.));
#590=DIRECTION('',(0.,0.,-1.));
#591=DIRECTION('',(-1.,0.,0.));
#592=DIRECTION('',(0.,0.,-1.));
#593=DIRECTION('center_axis',(0.,0.,-1.));
#594=DIRECTION('ref_axis',(-1.,0.,0.));
#595=DIRECTION('',(0.,1.,0.));
#596=DIRECTION('',(-1.,0.,0.));
#597=DIRECTION('',(0.,-1.,0.));
#598=DIRECTION('center_axis',(0.,-1.,0.));
#599=DIRECTION('ref_axis',(1.,0.,0.));
#600=DIRECTION('',(0.,0.,1.));
#601=DIRECTION('',(-1.,0.,0.));
#602=DIRECTION('',(0.,0.,1.));
#603=DIRECTION('center_axis',(1.,0.,0.));
#604=DIRECTION('ref_axis',(0.,1.,0.));
#605=DIRECTION('',(0.,-1.,0.));
#606=DIRECTION('',(0.,-1.,0.));
#607=DIRECTION('center_axis',(-1.,2.17690789142188E-17,0.));
#608=DIRECTION('ref_axis',(-2.17690789142188E-17,-1.,0.));
#609=DIRECTION('',(2.17690789142188E-17,1.,0.));
#610=DIRECTION('',(0.,-1.,0.));
#611=DIRECTION('center_axis',(0.,0.,1.));
#612=DIRECTION('ref_axis',(1.,0.,0.));
#613=DIRECTION('',(-1.,0.,0.));
#614=DIRECTION('',(1.11022302462516E-16,1.,0.));
#615=DIRECTION('',(1.,0.,0.));
#616=DIRECTION('',(0.,-1.,0.));
#617=DIRECTION('center_axis',(0.,1.,0.));
#618=DIRECTION('ref_axis',(-1.,0.,0.));
#619=DIRECTION('',(1.,0.,0.));
#620=DIRECTION('',(0.,0.,1.));
#621=DIRECTION('',(1.,0.,0.));
#622=DIRECTION('',(0.,0.,1.));
#623=DIRECTION('',(1.,0.,0.));
#624=DIRECTION('',(0.,0.,1.));
#625=DIRECTION('',(1.,0.,0.));
#626=DIRECTION('',(0.,0.,1.));
#627=DIRECTION('',(1.,0.,0.));
#628=DIRECTION('',(0.,0.,1.));
#629=DIRECTION('',(0.,0.,1.));
#630=DIRECTION('center_axis',(1.,-1.11022302462516E-16,0.));
#631=DIRECTION('ref_axis',(1.11022302462516E-16,1.,0.));
#632=DIRECTION('',(0.,-1.,0.));
#633=DIRECTION('',(0.,0.,1.));
#634=DIRECTION('center_axis',(-1.,0.,0.));
#635=DIRECTION('ref_axis',(0.,-1.,0.));
#636=DIRECTION('',(0.,1.,0.));
#637=DIRECTION('',(0.,0.,1.));
#638=DIRECTION('center_axis',(0.,-1.,0.));
#639=DIRECTION('ref_axis',(1.,0.,0.));
#640=DIRECTION('',(-1.,0.,0.));
#641=DIRECTION('',(-1.,0.,0.));
#642=DIRECTION('',(0.,0.,1.));
#643=DIRECTION('',(-1.,0.,0.));
#644=DIRECTION('',(0.,0.,1.));
#645=DIRECTION('',(-1.,0.,0.));
#646=DIRECTION('',(0.,0.,1.));
#647=DIRECTION('',(-1.,0.,0.));
#648=DIRECTION('',(0.,0.,1.));
#649=DIRECTION('center_axis',(-1.57478443209242E-16,1.,0.));
#650=DIRECTION('ref_axis',(-1.,-1.57478443209242E-16,0.));
#651=DIRECTION('',(-1.,-1.57478443209242E-16,0.));
#652=DIRECTION('',(0.,0.,1.));
#653=DIRECTION('',(-1.,-1.57478443209242E-16,0.));
#654=DIRECTION('',(0.,0.,1.));
#655=DIRECTION('center_axis',(1.,0.,0.));
#656=DIRECTION('ref_axis',(0.,1.,0.));
#657=DIRECTION('',(0.,1.,0.));
#658=DIRECTION('',(0.,1.,0.));
#659=DIRECTION('',(0.,0.,1.));
#660=DIRECTION('center_axis',(0.,-1.,0.));
#661=DIRECTION('ref_axis',(1.,0.,0.));
#662=DIRECTION('',(1.,0.,0.));
#663=DIRECTION('',(1.,0.,0.));
#664=DIRECTION('',(0.,0.,1.));
#665=DIRECTION('center_axis',(-1.,-4.1895208476421E-17,0.));
#666=DIRECTION('ref_axis',(4.1895208476421E-17,-1.,0.));
#667=DIRECTION('',(4.1895208476421E-17,-1.,0.));
#668=DIRECTION('',(4.1895208476421E-17,-1.,0.));
#669=DIRECTION('center_axis',(0.,0.,1.));
#670=DIRECTION('ref_axis',(1.,0.,0.));
#671=DIRECTION('center_axis',(1.,0.,0.));
#672=DIRECTION('ref_axis',(0.,1.,0.));
#673=DIRECTION('',(0.,-1.,0.));
#674=DIRECTION('',(0.,1.,0.));
#675=DIRECTION('center_axis',(-1.,-2.66453525910038E-16,0.));
#676=DIRECTION('ref_axis',(2.66453525910038E-16,-1.,0.));
#677=DIRECTION('',(-2.66453525910038E-16,1.,0.));
#678=DIRECTION('',(2.66453525910038E-16,-1.,0.));
#679=DIRECTION('center_axis',(0.,0.,1.));
#680=DIRECTION('ref_axis',(1.,0.,0.));
#681=DIRECTION('center_axis',(0.,0.,1.));
#682=DIRECTION('ref_axis',(1.,0.,0.));
#683=DIRECTION('center_axis',(0.,0.,1.));
#684=DIRECTION('ref_axis',(1.,0.,0.));
#685=DIRECTION('',(-8.88178419700125E-17,-1.,0.));
#686=DIRECTION('center_axis',(1.,-8.88178419700125E-17,0.));
#687=DIRECTION('ref_axis',(8.88178419700125E-17,1.,0.));
#688=DIRECTION('',(8.88178419700125E-17,1.,0.));
#689=DIRECTION('center_axis',(-1.,4.44089209850063E-17,0.));
#690=DIRECTION('ref_axis',(-4.44089209850063E-17,-1.,0.));
#691=DIRECTION('',(4.44089209850063E-17,1.,0.));
#692=DIRECTION('',(-4.44089209850063E-17,-1.,0.));
#693=DIRECTION('center_axis',(0.,0.,1.));
#694=DIRECTION('ref_axis',(1.,0.,0.));
#695=DIRECTION('center_axis',(0.,0.,1.));
#696=DIRECTION('ref_axis',(1.,0.,0.));
#697=DIRECTION('center_axis',(0.,0.,1.));
#698=DIRECTION('ref_axis',(1.,0.,0.));
#699=CARTESIAN_POINT('',(0.,0.,0.));
#700=CARTESIAN_POINT('Origin',(17.1582509363038,39.2679115602451,48.));
#701=CARTESIAN_POINT('',(69.5582509363038,39.2679115602451,48.));
#702=CARTESIAN_POINT('',(17.1582509363038,39.2679115602451,48.));
#703=CARTESIAN_POINT('',(69.5582509363038,39.2679115602451,48.));
#704=CARTESIAN_POINT('',(69.5582509363038,39.2679115602451,47.));
#705=CARTESIAN_POINT('',(69.5582509363038,39.2679115602451,48.));
#706=CARTESIAN_POINT('',(17.1582509363038,39.2679115602451,47.));
#707=CARTESIAN_POINT('',(69.5582509363038,39.2679115602451,47.));
#708=CARTESIAN_POINT('',(17.1582509363038,39.2679115602451,48.));
#709=CARTESIAN_POINT('Origin',(43.3582509363038,39.0679115602451,47.));
#710=CARTESIAN_POINT('',(69.5582509363038,38.8679115602451,47.));
#711=CARTESIAN_POINT('',(69.5582509363038,38.8679115602451,47.));
#712=CARTESIAN_POINT('',(17.1582509363038,38.8679115602451,47.));
#713=CARTESIAN_POINT('',(56.4582509363038,38.8679115602451,47.));
#714=CARTESIAN_POINT('',(17.1582509363038,39.2679115602451,47.));
#715=CARTESIAN_POINT('Origin',(69.5582509363038,38.8679115602451,45.));
#716=CARTESIAN_POINT('',(69.5582509363038,38.8679115602451,45.));
#717=CARTESIAN_POINT('',(69.5582509363038,38.8679115602451,45.));
#718=CARTESIAN_POINT('',(17.1582509363037,38.8679115602451,45.));
#719=CARTESIAN_POINT('',(56.4582509363037,38.8679115602451,45.));
#720=CARTESIAN_POINT('',(17.1582509363037,38.8679115602451,45.));
#721=CARTESIAN_POINT('Origin',(69.5582509363038,-63.5320884397549,48.));
#722=CARTESIAN_POINT('',(69.5582509363038,-63.5320884397549,48.));
#723=CARTESIAN_POINT('',(17.1582509363037,-63.5320884397549,48.));
#724=CARTESIAN_POINT('',(69.5582509363038,-63.5320884397549,48.));
#725=CARTESIAN_POINT('',(17.1582509363037,-63.5320884397549,47.));
#726=CARTESIAN_POINT('',(17.1582509363037,-63.5320884397549,48.));
#727=CARTESIAN_POINT('',(69.5582509363038,-63.5320884397549,47.));
#728=CARTESIAN_POINT('',(69.5582509363038,-63.5320884397549,47.));
#729=CARTESIAN_POINT('',(69.5582509363038,-63.5320884397549,48.));
#730=CARTESIAN_POINT('Origin',(43.3582509363038,-63.3320884397549,47.));
#731=CARTESIAN_POINT('',(17.1582509363037,-63.1320884397549,47.));
#732=CARTESIAN_POINT('',(17.1582509363037,-63.5320884397549,47.));
#733=CARTESIAN_POINT('',(69.5582509363038,-63.1320884397549,47.));
#734=CARTESIAN_POINT('',(30.2582509363037,-63.1320884397549,47.));
#735=CARTESIAN_POINT('',(69.5582509363038,-63.1320884397549,47.));
#736=CARTESIAN_POINT('Origin',(17.1582509363037,-63.1320884397549,45.));
#737=CARTESIAN_POINT('',(17.1582509363037,-63.1320884397549,45.));
#738=CARTESIAN_POINT('',(17.1582509363037,-63.1320884397549,45.));
#739=CARTESIAN_POINT('',(69.5582509363038,-63.1320884397549,45.));
#740=CARTESIAN_POINT('',(30.2582509363037,-63.1320884397549,45.));
#741=CARTESIAN_POINT('',(69.5582509363038,-63.1320884397549,45.));
#742=CARTESIAN_POINT('Origin',(69.5582509363038,-63.1320884397549,45.));
#743=CARTESIAN_POINT('',(69.5582509363038,-37.6320884397549,45.));
#744=CARTESIAN_POINT('',(69.5582509363038,-63.1320884397549,48.));
#745=CARTESIAN_POINT('Origin',(17.1582509363037,38.8679115602451,45.));
#746=CARTESIAN_POINT('',(17.1582509363037,13.3679115602451,45.));
#747=CARTESIAN_POINT('',(17.1582509363038,39.2679115602451,48.));
#748=CARTESIAN_POINT('Origin',(43.3582509363038,-12.1320884397549,48.));
#749=CARTESIAN_POINT('',(68.5582509363038,-62.1320884397549,48.));
#750=CARTESIAN_POINT('',(18.1582509363037,-62.1320884397549,48.));
#751=CARTESIAN_POINT('',(68.5582509363038,-62.1320884397549,48.));
#752=CARTESIAN_POINT('',(18.1582509363037,37.8679115602451,48.));
#753=CARTESIAN_POINT('',(18.1582509363037,-62.1320884397549,48.));
#754=CARTESIAN_POINT('',(68.5582509363038,37.8679115602451,48.));
#755=CARTESIAN_POINT('',(18.1582509363038,37.8679115602451,48.));
#756=CARTESIAN_POINT('',(68.5582509363038,37.8679115602451,48.));
#757=CARTESIAN_POINT('Origin',(68.5582509363038,-62.1320884397549,0.));
#758=CARTESIAN_POINT('',(58.1582509363037,-62.1320884397549,1.));
#759=CARTESIAN_POINT('',(68.5582509363038,-62.1320884397549,1.));
#760=CARTESIAN_POINT('',(68.5582509363038,-62.1320884397549,1.));
#761=CARTESIAN_POINT('',(58.1582509363037,-62.1320884397549,6.));
#762=CARTESIAN_POINT('',(58.1582509363037,-62.1320884397549,1.));
#763=CARTESIAN_POINT('',(53.5582509363038,-62.1320884397549,6.));
#764=CARTESIAN_POINT('',(68.5582509363038,-62.1320884397549,6.));
#765=CARTESIAN_POINT('',(53.5582509363038,-62.1320884397549,1.));
#766=CARTESIAN_POINT('',(53.5582509363038,-62.1320884397549,1.));
#767=CARTESIAN_POINT('',(33.1582509363037,-62.1320884397549,1.));
#768=CARTESIAN_POINT('',(68.5582509363038,-62.1320884397549,1.));
#769=CARTESIAN_POINT('',(33.1582509363037,-62.1320884397549,6.));
#770=CARTESIAN_POINT('',(33.1582509363037,-62.1320884397549,1.));
#771=CARTESIAN_POINT('',(28.5582509363038,-62.1320884397549,6.));
#772=CARTESIAN_POINT('',(68.5582509363038,-62.1320884397549,6.));
#773=CARTESIAN_POINT('',(28.5582509363038,-62.1320884397549,1.));
#774=CARTESIAN_POINT('',(28.5582509363038,-62.1320884397549,1.));
#775=CARTESIAN_POINT('',(18.1582509363037,-62.1320884397549,1.));
#776=CARTESIAN_POINT('',(68.5582509363038,-62.1320884397549,1.));
#777=CARTESIAN_POINT('',(18.1582509363037,-62.1320884397549,0.));
#778=CARTESIAN_POINT('',(68.5582509363038,-62.1320884397549,0.));
#779=CARTESIAN_POINT('Origin',(18.1582509363037,-62.1320884397549,0.));
#780=CARTESIAN_POINT('',(18.1582509363037,37.8679115602451,1.));
#781=CARTESIAN_POINT('',(18.1582509363038,-62.1320884397549,1.));
#782=CARTESIAN_POINT('',(18.1582509363038,37.8679115602451,0.));
#783=CARTESIAN_POINT('Origin',(68.5582509363038,37.8679115602451,0.));
#784=CARTESIAN_POINT('',(68.5582509363038,37.8679115602451,1.));
#785=CARTESIAN_POINT('',(68.5582509363038,37.8679115602451,1.));
#786=CARTESIAN_POINT('',(68.5582509363038,37.8679115602451,0.));
#787=CARTESIAN_POINT('Origin',(18.1582509363037,37.8679115602451,0.));
#788=CARTESIAN_POINT('',(58.1582509363037,37.8679115602451,1.));
#789=CARTESIAN_POINT('',(18.1582509363038,37.8679115602451,1.));
#790=CARTESIAN_POINT('',(28.5582509363038,37.8679115602451,1.));
#791=CARTESIAN_POINT('',(18.1582509363038,37.8679115602451,1.));
#792=CARTESIAN_POINT('',(28.5582509363038,37.8679115602451,6.));
#793=CARTESIAN_POINT('',(28.5582509363038,37.8679115602451,1.));
#794=CARTESIAN_POINT('',(33.1582509363038,37.8679115602451,6.));
#795=CARTESIAN_POINT('',(18.1582509363038,37.8679115602451,6.));
#796=CARTESIAN_POINT('',(33.1582509363038,37.8679115602451,1.));
#797=CARTESIAN_POINT('',(33.1582509363038,37.8679115602451,1.));
#798=CARTESIAN_POINT('',(53.5582509363038,37.8679115602451,1.));
#799=CARTESIAN_POINT('',(18.1582509363038,37.8679115602451,1.));
#800=CARTESIAN_POINT('',(53.5582509363038,37.8679115602451,6.));
#801=CARTESIAN_POINT('',(53.5582509363038,37.8679115602451,1.));
#802=CARTESIAN_POINT('',(58.1582509363037,37.8679115602451,6.));
#803=CARTESIAN_POINT('',(18.1582509363038,37.8679115602451,6.));
#804=CARTESIAN_POINT('',(58.1582509363037,37.8679115602451,1.));
#805=CARTESIAN_POINT('Origin',(71.5582509363038,40.8679115602451,0.));
#806=CARTESIAN_POINT('',(71.5582509363038,40.8679115602451,0.));
#807=CARTESIAN_POINT('',(15.1582509363037,40.8679115602451,0.));
#808=CARTESIAN_POINT('',(29.2582509363037,40.8679115602451,0.));
#809=CARTESIAN_POINT('',(15.1582509363037,40.8679115602451,45.));
#810=CARTESIAN_POINT('',(15.1582509363037,40.8679115602451,0.));
#811=CARTESIAN_POINT('',(71.5582509363038,40.8679115602451,45.));
#812=CARTESIAN_POINT('',(29.2582509363037,40.8679115602451,45.));
#813=CARTESIAN_POINT('',(71.5582509363038,40.8679115602451,0.));
#814=CARTESIAN_POINT('Origin',(71.5582509363038,-65.1320884397549,0.));
#815=CARTESIAN_POINT('',(71.5582509363038,-65.1320884397549,0.));
#816=CARTESIAN_POINT('',(71.5582509363038,14.3679115602451,0.));
#817=CARTESIAN_POINT('',(71.5582509363038,-65.1320884397549,45.));
#818=CARTESIAN_POINT('',(71.5582509363038,14.3679115602451,45.));
#819=CARTESIAN_POINT('',(71.5582509363038,-65.1320884397549,0.));
#820=CARTESIAN_POINT('Origin',(15.1582509363037,-65.1320884397549,0.));
#821=CARTESIAN_POINT('',(15.1582509363037,-65.1320884397549,0.));
#822=CARTESIAN_POINT('',(57.4582509363037,-65.1320884397549,0.));
#823=CARTESIAN_POINT('',(15.1582509363037,-65.1320884397549,45.));
#824=CARTESIAN_POINT('',(57.4582509363037,-65.1320884397549,45.));
#825=CARTESIAN_POINT('',(15.1582509363037,-65.1320884397549,0.));
#826=CARTESIAN_POINT('Origin',(15.1582509363037,40.8679115602451,0.));
#827=CARTESIAN_POINT('',(15.1582509363037,-38.6320884397549,0.));
#828=CARTESIAN_POINT('',(15.1582509363037,-38.6320884397549,45.));
#829=CARTESIAN_POINT('Origin',(43.3582509363037,-12.1320884397549,45.));
#830=CARTESIAN_POINT('Origin',(58.1582509363037,-62.1320884397549,1.));
#831=CARTESIAN_POINT('',(58.1582509363037,-37.1320884397549,1.));
#832=CARTESIAN_POINT('',(58.1582509363037,37.8679115602451,6.));
#833=CARTESIAN_POINT('Origin',(53.5582509363038,37.8679115602451,1.));
#834=CARTESIAN_POINT('',(53.5582509363038,12.8679115602451,1.));
#835=CARTESIAN_POINT('',(53.5582509363038,37.8679115602451,6.));
#836=CARTESIAN_POINT('Origin',(55.8582509363037,-12.1320884397549,6.));
#837=CARTESIAN_POINT('Origin',(43.3582509363038,-12.1320884397549,1.));
#838=CARTESIAN_POINT('Origin',(43.3582509363038,-12.1320884397549,1.));
#839=CARTESIAN_POINT('',(33.1582509363037,-37.1320884397549,1.));
#840=CARTESIAN_POINT('Origin',(33.1582509363037,-62.1320884397549,1.));
#841=CARTESIAN_POINT('',(33.1582509363038,37.8679115602451,6.));
#842=CARTESIAN_POINT('Origin',(28.5582509363038,37.8679115602451,1.));
#843=CARTESIAN_POINT('',(28.5582509363038,12.8679115602451,1.));
#844=CARTESIAN_POINT('',(28.5582509363038,37.8679115602451,6.));
#845=CARTESIAN_POINT('Origin',(30.8582509363038,-12.1320884397549,6.));
#846=CARTESIAN_POINT('Origin',(43.3582509363038,-12.1320884397549,1.));
#847=CARTESIAN_POINT('Origin',(43.3582509363038,-12.1320884397549,0.));
#848=UNCERTAINTY_MEASURE_WITH_UNIT(LENGTH_MEASURE(0.01),#852,
'DISTANCE_ACCURACY_VALUE',
'Maximum model space distance between geometric entities at asserted c
onnectivities');
#849=UNCERTAINTY_MEASURE_WITH_UNIT(LENGTH_MEASURE(0.01),#852,
'DISTANCE_ACCURACY_VALUE',
'Maximum model space distance between geometric entities at asserted c
onnectivities');
#850=(
GEOMETRIC_REPRESENTATION_CONTEXT(3)
GLOBAL_UNCERTAINTY_ASSIGNED_CONTEXT((#848))
GLOBAL_UNIT_ASSIGNED_CONTEXT((#852,#853,#854))
REPRESENTATION_CONTEXT('','3D')
);
#851=(
GEOMETRIC_REPRESENTATION_CONTEXT(3)
GLOBAL_UNCERTAINTY_ASSIGNED_CONTEXT((#849))
GLOBAL_UNIT_ASSIGNED_CONTEXT((#852,#853,#854))
REPRESENTATION_CONTEXT('','3D')
);
#852=(
LENGTH_UNIT()
NAMED_UNIT(*)
SI_UNIT(.MILLI.,.METRE.)
);
#853=(
NAMED_UNIT(*)
PLANE_ANGLE_UNIT()
SI_UNIT($,.RADIAN.)
);
#854=(
NAMED_UNIT(*)
SI_UNIT($,.STERADIAN.)
SOLID_ANGLE_UNIT()
);
#855=SHAPE_DEFINITION_REPRESENTATION(#856,#857);
#856=PRODUCT_DEFINITION_SHAPE('',$,#859);
#857=SHAPE_REPRESENTATION('',(#540),#850);
#858=PRODUCT_DEFINITION_CONTEXT('part definition',#863,'design');
#859=PRODUCT_DEFINITION('Swatch Base','Swatch Base v9',#860,#858);
#860=PRODUCT_DEFINITION_FORMATION('',$,#865);
#861=PRODUCT_RELATED_PRODUCT_CATEGORY('Swatch Base v9','Swatch Base v9',
(#865));
#862=APPLICATION_PROTOCOL_DEFINITION('international standard',
'automotive_design',2009,#863);
#863=APPLICATION_CONTEXT(
'Core Data for Automotive Mechanical Design Process');
#864=PRODUCT_CONTEXT('part definition',#863,'mechanical');
#865=PRODUCT('Swatch Base','Swatch Base v9',$,(#864));
#866=PRESENTATION_STYLE_ASSIGNMENT((#867));
#867=SURFACE_STYLE_USAGE(.BOTH.,#868);
#868=SURFACE_SIDE_STYLE('',(#869));
#869=SURFACE_STYLE_FILL_AREA(#870);
#870=FILL_AREA_STYLE('Acciaio - Satinato',(#871));
#871=FILL_AREA_STYLE_COLOUR('Acciaio - Satinato',#872);
#872=COLOUR_RGB('Acciaio - Satinato',0.627450980392157,0.627450980392157,
0.627450980392157);
ENDSEC;
END-ISO-10303-21;
