ISO-10303-21;
HEADER;
/* Generated by software containing ST-Developer
 * from STEP Tools, Inc. (www.steptools.com) 
 */

FILE_DESCRIPTION(
/* description */ (''),
/* implementation_level */ '2;1');

FILE_NAME(
/* name */ 'Thickness-10.0 mm.step',
/* time_stamp */ '2026-05-11T21:45:43+02:00',
/* author */ (''),
/* organization */ (''),
/* preprocessor_version */ 'ST-DEVELOPER v20.1',
/* originating_system */ 'Autodesk Translation Framework v15.8.0.0',
/* authorisation */ '');

FILE_SCHEMA (('AUTOMOTIVE_DESIGN { 1 0 10303 214 3 1 1 }'));
ENDSEC;

DATA;
#10=MECHANICAL_DESIGN_GEOMETRIC_PRESENTATION_REPRESENTATION('',(#13),#354);
#11=SHAPE_REPRESENTATION_RELATIONSHIP('SRR','None',#361,#12);
#12=ADVANCED_BREP_SHAPE_REPRESENTATION('',(#14),#353);
#13=STYLED_ITEM('',(#370),#14);
#14=MANIFOLD_SOLID_BREP('Corpo1',#214);
#15=FACE_BOUND('',#35,.T.);
#16=FACE_BOUND('',#43,.T.);
#17=CIRCLE('',#230,2.5);
#18=CIRCLE('',#231,2.5);
#19=CYLINDRICAL_SURFACE('',#229,2.5);
#20=FACE_OUTER_BOUND('',#31,.T.);
#21=FACE_OUTER_BOUND('',#32,.T.);
#22=FACE_OUTER_BOUND('',#33,.T.);
#23=FACE_OUTER_BOUND('',#34,.T.);
#24=FACE_OUTER_BOUND('',#36,.T.);
#25=FACE_OUTER_BOUND('',#37,.T.);
#26=FACE_OUTER_BOUND('',#38,.T.);
#27=FACE_OUTER_BOUND('',#39,.T.);
#28=FACE_OUTER_BOUND('',#40,.T.);
#29=FACE_OUTER_BOUND('',#41,.T.);
#30=FACE_OUTER_BOUND('',#42,.T.);
#31=EDGE_LOOP('',(#139,#140,#141,#142));
#32=EDGE_LOOP('',(#143,#144,#145,#146));
#33=EDGE_LOOP('',(#147,#148,#149,#150));
#34=EDGE_LOOP('',(#151,#152,#153,#154));
#35=EDGE_LOOP('',(#155));
#36=EDGE_LOOP('',(#156,#157,#158,#159));
#37=EDGE_LOOP('',(#160,#161,#162,#163));
#38=EDGE_LOOP('',(#164,#165,#166,#167,#168,#169,#170,#171));
#39=EDGE_LOOP('',(#172,#173,#174,#175));
#40=EDGE_LOOP('',(#176,#177,#178,#179,#180,#181,#182,#183));
#41=EDGE_LOOP('',(#184,#185,#186,#187));
#42=EDGE_LOOP('',(#188,#189,#190,#191));
#43=EDGE_LOOP('',(#192));
#44=LINE('',#298,#69);
#45=LINE('',#300,#70);
#46=LINE('',#302,#71);
#47=LINE('',#303,#72);
#48=LINE('',#308,#73);
#49=LINE('',#313,#74);
#50=LINE('',#315,#75);
#51=LINE('',#317,#76);
#52=LINE('',#318,#77);
#53=LINE('',#320,#78);
#54=LINE('',#321,#79);
#55=LINE('',#325,#80);
#56=LINE('',#326,#81);
#57=LINE('',#327,#82);
#58=LINE('',#331,#83);
#59=LINE('',#333,#84);
#60=LINE('',#335,#85);
#61=LINE('',#336,#86);
#62=LINE('',#338,#87);
#63=LINE('',#340,#88);
#64=LINE('',#341,#89);
#65=LINE('',#344,#90);
#66=LINE('',#345,#91);
#67=LINE('',#347,#92);
#68=LINE('',#348,#93);
#69=VECTOR('',#245,10.);
#70=VECTOR('',#246,10.);
#71=VECTOR('',#247,10.);
#72=VECTOR('',#248,10.);
#73=VECTOR('',#253,2.5);
#74=VECTOR('',#258,10.);
#75=VECTOR('',#259,10.);
#76=VECTOR('',#260,10.);
#77=VECTOR('',#261,10.);
#78=VECTOR('',#264,10.);
#79=VECTOR('',#265,10.);
#80=VECTOR('',#268,10.);
#81=VECTOR('',#269,10.);
#82=VECTOR('',#270,10.);
#83=VECTOR('',#273,10.);
#84=VECTOR('',#274,10.);
#85=VECTOR('',#275,10.);
#86=VECTOR('',#276,10.);
#87=VECTOR('',#279,10.);
#88=VECTOR('',#280,10.);
#89=VECTOR('',#281,10.);
#90=VECTOR('',#284,10.);
#91=VECTOR('',#285,10.);
#92=VECTOR('',#288,10.);
#93=VECTOR('',#289,10.);
#94=VERTEX_POINT('',#296);
#95=VERTEX_POINT('',#297);
#96=VERTEX_POINT('',#299);
#97=VERTEX_POINT('',#301);
#98=VERTEX_POINT('',#305);
#99=VERTEX_POINT('',#307);
#100=VERTEX_POINT('',#311);
#101=VERTEX_POINT('',#312);
#102=VERTEX_POINT('',#314);
#103=VERTEX_POINT('',#316);
#104=VERTEX_POINT('',#323);
#105=VERTEX_POINT('',#324);
#106=VERTEX_POINT('',#329);
#107=VERTEX_POINT('',#330);
#108=VERTEX_POINT('',#332);
#109=VERTEX_POINT('',#334);
#110=VERTEX_POINT('',#339);
#111=VERTEX_POINT('',#343);
#112=EDGE_CURVE('',#94,#95,#44,.T.);
#113=EDGE_CURVE('',#94,#96,#45,.T.);
#114=EDGE_CURVE('',#96,#97,#46,.T.);
#115=EDGE_CURVE('',#95,#97,#47,.T.);
#116=EDGE_CURVE('',#98,#98,#17,.T.);
#117=EDGE_CURVE('',#98,#99,#48,.T.);
#118=EDGE_CURVE('',#99,#99,#18,.T.);
#119=EDGE_CURVE('',#100,#101,#49,.T.);
#120=EDGE_CURVE('',#102,#101,#50,.T.);
#121=EDGE_CURVE('',#103,#102,#51,.T.);
#122=EDGE_CURVE('',#103,#100,#52,.T.);
#123=EDGE_CURVE('',#97,#100,#53,.T.);
#124=EDGE_CURVE('',#101,#96,#54,.T.);
#125=EDGE_CURVE('',#104,#105,#55,.T.);
#126=EDGE_CURVE('',#104,#94,#56,.T.);
#127=EDGE_CURVE('',#95,#105,#57,.T.);
#128=EDGE_CURVE('',#106,#107,#58,.T.);
#129=EDGE_CURVE('',#106,#108,#59,.T.);
#130=EDGE_CURVE('',#109,#108,#60,.T.);
#131=EDGE_CURVE('',#107,#109,#61,.T.);
#132=EDGE_CURVE('',#107,#103,#62,.T.);
#133=EDGE_CURVE('',#110,#109,#63,.T.);
#134=EDGE_CURVE('',#105,#110,#64,.T.);
#135=EDGE_CURVE('',#111,#110,#65,.T.);
#136=EDGE_CURVE('',#104,#111,#66,.T.);
#137=EDGE_CURVE('',#102,#106,#67,.T.);
#138=EDGE_CURVE('',#108,#111,#68,.T.);
#139=ORIENTED_EDGE('',*,*,#112,.F.);
#140=ORIENTED_EDGE('',*,*,#113,.T.);
#141=ORIENTED_EDGE('',*,*,#114,.T.);
#142=ORIENTED_EDGE('',*,*,#115,.F.);
#143=ORIENTED_EDGE('',*,*,#116,.T.);
#144=ORIENTED_EDGE('',*,*,#117,.T.);
#145=ORIENTED_EDGE('',*,*,#118,.T.);
#146=ORIENTED_EDGE('',*,*,#117,.F.);
#147=ORIENTED_EDGE('',*,*,#119,.T.);
#148=ORIENTED_EDGE('',*,*,#120,.F.);
#149=ORIENTED_EDGE('',*,*,#121,.F.);
#150=ORIENTED_EDGE('',*,*,#122,.T.);
#151=ORIENTED_EDGE('',*,*,#119,.F.);
#152=ORIENTED_EDGE('',*,*,#123,.F.);
#153=ORIENTED_EDGE('',*,*,#114,.F.);
#154=ORIENTED_EDGE('',*,*,#124,.F.);
#155=ORIENTED_EDGE('',*,*,#116,.F.);
#156=ORIENTED_EDGE('',*,*,#125,.F.);
#157=ORIENTED_EDGE('',*,*,#126,.T.);
#158=ORIENTED_EDGE('',*,*,#112,.T.);
#159=ORIENTED_EDGE('',*,*,#127,.T.);
#160=ORIENTED_EDGE('',*,*,#128,.F.);
#161=ORIENTED_EDGE('',*,*,#129,.T.);
#162=ORIENTED_EDGE('',*,*,#130,.F.);
#163=ORIENTED_EDGE('',*,*,#131,.F.);
#164=ORIENTED_EDGE('',*,*,#132,.F.);
#165=ORIENTED_EDGE('',*,*,#131,.T.);
#166=ORIENTED_EDGE('',*,*,#133,.F.);
#167=ORIENTED_EDGE('',*,*,#134,.F.);
#168=ORIENTED_EDGE('',*,*,#127,.F.);
#169=ORIENTED_EDGE('',*,*,#115,.T.);
#170=ORIENTED_EDGE('',*,*,#123,.T.);
#171=ORIENTED_EDGE('',*,*,#122,.F.);
#172=ORIENTED_EDGE('',*,*,#125,.T.);
#173=ORIENTED_EDGE('',*,*,#134,.T.);
#174=ORIENTED_EDGE('',*,*,#135,.F.);
#175=ORIENTED_EDGE('',*,*,#136,.F.);
#176=ORIENTED_EDGE('',*,*,#137,.F.);
#177=ORIENTED_EDGE('',*,*,#120,.T.);
#178=ORIENTED_EDGE('',*,*,#124,.T.);
#179=ORIENTED_EDGE('',*,*,#113,.F.);
#180=ORIENTED_EDGE('',*,*,#126,.F.);
#181=ORIENTED_EDGE('',*,*,#136,.T.);
#182=ORIENTED_EDGE('',*,*,#138,.F.);
#183=ORIENTED_EDGE('',*,*,#129,.F.);
#184=ORIENTED_EDGE('',*,*,#138,.T.);
#185=ORIENTED_EDGE('',*,*,#135,.T.);
#186=ORIENTED_EDGE('',*,*,#133,.T.);
#187=ORIENTED_EDGE('',*,*,#130,.T.);
#188=ORIENTED_EDGE('',*,*,#137,.T.);
#189=ORIENTED_EDGE('',*,*,#128,.T.);
#190=ORIENTED_EDGE('',*,*,#132,.T.);
#191=ORIENTED_EDGE('',*,*,#121,.T.);
#192=ORIENTED_EDGE('',*,*,#118,.F.);
#193=PLANE('',#228);
#194=PLANE('',#232);
#195=PLANE('',#233);
#196=PLANE('',#234);
#197=PLANE('',#235);
#198=PLANE('',#236);
#199=PLANE('',#237);
#200=PLANE('',#238);
#201=PLANE('',#239);
#202=PLANE('',#240);
#203=ADVANCED_FACE('',(#20),#193,.T.);
#204=ADVANCED_FACE('',(#21),#19,.F.);
#205=ADVANCED_FACE('',(#22),#194,.T.);
#206=ADVANCED_FACE('',(#23,#15),#195,.T.);
#207=ADVANCED_FACE('',(#24),#196,.T.);
#208=ADVANCED_FACE('',(#25),#197,.T.);
#209=ADVANCED_FACE('',(#26),#198,.T.);
#210=ADVANCED_FACE('',(#27),#199,.T.);
#211=ADVANCED_FACE('',(#28),#200,.T.);
#212=ADVANCED_FACE('',(#29),#201,.T.);
#213=ADVANCED_FACE('',(#30,#16),#202,.F.);
#214=CLOSED_SHELL('',(#203,#204,#205,#206,#207,#208,#209,#210,#211,#212,
#213));
#215=DERIVED_UNIT_ELEMENT(#217,1.);
#216=DERIVED_UNIT_ELEMENT(#356,-3.);
#217=(
MASS_UNIT()
NAMED_UNIT(*)
SI_UNIT(.KILO.,.GRAM.)
);
#218=DERIVED_UNIT((#215,#216));
#219=MEASURE_REPRESENTATION_ITEM('density measure',
POSITIVE_RATIO_MEASURE(7850.),#218);
#220=PROPERTY_DEFINITION_REPRESENTATION(#225,#222);
#221=PROPERTY_DEFINITION_REPRESENTATION(#226,#223);
#222=REPRESENTATION('material name',(#224),#353);
#223=REPRESENTATION('density',(#219),#353);
#224=DESCRIPTIVE_REPRESENTATION_ITEM('Acciaio','Acciaio');
#225=PROPERTY_DEFINITION('material property','material name',#363);
#226=PROPERTY_DEFINITION('material property','density of part',#363);
#227=AXIS2_PLACEMENT_3D('',#294,#241,#242);
#228=AXIS2_PLACEMENT_3D('',#295,#243,#244);
#229=AXIS2_PLACEMENT_3D('',#304,#249,#250);
#230=AXIS2_PLACEMENT_3D('',#306,#251,#252);
#231=AXIS2_PLACEMENT_3D('',#309,#254,#255);
#232=AXIS2_PLACEMENT_3D('',#310,#256,#257);
#233=AXIS2_PLACEMENT_3D('',#319,#262,#263);
#234=AXIS2_PLACEMENT_3D('',#322,#266,#267);
#235=AXIS2_PLACEMENT_3D('',#328,#271,#272);
#236=AXIS2_PLACEMENT_3D('',#337,#277,#278);
#237=AXIS2_PLACEMENT_3D('',#342,#282,#283);
#238=AXIS2_PLACEMENT_3D('',#346,#286,#287);
#239=AXIS2_PLACEMENT_3D('',#349,#290,#291);
#240=AXIS2_PLACEMENT_3D('',#350,#292,#293);
#241=DIRECTION('axis',(0.,0.,1.));
#242=DIRECTION('refdir',(1.,0.,0.));
#243=DIRECTION('center_axis',(-1.,0.,0.));
#244=DIRECTION('ref_axis',(0.,-1.,0.));
#245=DIRECTION('',(0.,1.,0.));
#246=DIRECTION('',(0.,0.,1.));
#247=DIRECTION('',(0.,1.,0.));
#248=DIRECTION('',(0.,0.,1.));
#249=DIRECTION('center_axis',(0.,0.,1.));
#250=DIRECTION('ref_axis',(1.,0.,0.));
#251=DIRECTION('center_axis',(0.,0.,1.));
#252=DIRECTION('ref_axis',(1.,0.,0.));
#253=DIRECTION('',(0.,0.,-1.));
#254=DIRECTION('center_axis',(0.,0.,-1.));
#255=DIRECTION('ref_axis',(1.,0.,0.));
#256=DIRECTION('center_axis',(1.,0.,0.));
#257=DIRECTION('ref_axis',(0.,1.,0.));
#258=DIRECTION('',(0.,-1.,0.));
#259=DIRECTION('',(0.,0.,1.));
#260=DIRECTION('',(0.,-1.,0.));
#261=DIRECTION('',(0.,0.,1.));
#262=DIRECTION('center_axis',(0.,0.,1.));
#263=DIRECTION('ref_axis',(1.,0.,0.));
#264=DIRECTION('',(1.,-8.88178419700125E-17,0.));
#265=DIRECTION('',(-1.,8.88178419700125E-17,0.));
#266=DIRECTION('center_axis',(0.,0.,1.));
#267=DIRECTION('ref_axis',(1.,0.,0.));
#268=DIRECTION('',(0.,1.,0.));
#269=DIRECTION('',(1.,-8.88178419700125E-17,0.));
#270=DIRECTION('',(-1.,8.88178419700125E-17,0.));
#271=DIRECTION('center_axis',(-1.,0.,0.));
#272=DIRECTION('ref_axis',(0.,-1.,0.));
#273=DIRECTION('',(0.,1.,0.));
#274=DIRECTION('',(0.,0.,1.));
#275=DIRECTION('',(0.,-1.,0.));
#276=DIRECTION('',(0.,0.,1.));
#277=DIRECTION('center_axis',(0.,1.,0.));
#278=DIRECTION('ref_axis',(-1.,0.,0.));
#279=DIRECTION('',(1.,-8.88178419700125E-17,0.));
#280=DIRECTION('',(-1.,0.,0.));
#281=DIRECTION('',(0.,0.,1.));
#282=DIRECTION('center_axis',(1.,0.,0.));
#283=DIRECTION('ref_axis',(0.,1.,0.));
#284=DIRECTION('',(0.,1.,0.));
#285=DIRECTION('',(0.,0.,1.));
#286=DIRECTION('center_axis',(0.,-1.,0.));
#287=DIRECTION('ref_axis',(1.,0.,0.));
#288=DIRECTION('',(-1.,0.,0.));
#289=DIRECTION('',(1.,0.,0.));
#290=DIRECTION('center_axis',(0.,0.,1.));
#291=DIRECTION('ref_axis',(1.,0.,0.));
#292=DIRECTION('center_axis',(0.,0.,1.));
#293=DIRECTION('ref_axis',(1.,0.,0.));
#294=CARTESIAN_POINT('',(0.,0.,0.));
#295=CARTESIAN_POINT('Origin',(28.2470805187714,16.0577654230056,0.));
#296=CARTESIAN_POINT('',(28.2470805187714,-13.9422345769944,0.6));
#297=CARTESIAN_POINT('',(28.2470805187714,16.0577654230056,0.6));
#298=CARTESIAN_POINT('',(28.2470805187714,16.0577654230056,0.6));
#299=CARTESIAN_POINT('',(28.2470805187714,-13.9422345769944,10.));
#300=CARTESIAN_POINT('',(28.2470805187714,-13.9422345769944,0.));
#301=CARTESIAN_POINT('',(28.2470805187714,16.0577654230056,10.));
#302=CARTESIAN_POINT('',(28.2470805187714,8.55776542300557,10.));
#303=CARTESIAN_POINT('',(28.2470805187714,16.0577654230056,0.));
#304=CARTESIAN_POINT('Origin',(36.2470805187714,1.05776542300556,0.));
#305=CARTESIAN_POINT('',(33.7470805187714,1.05776542300556,10.));
#306=CARTESIAN_POINT('Origin',(36.2470805187714,1.05776542300556,10.));
#307=CARTESIAN_POINT('',(33.7470805187714,1.05776542300556,0.));
#308=CARTESIAN_POINT('',(33.7470805187714,1.05776542300556,0.));
#309=CARTESIAN_POINT('Origin',(36.2470805187714,1.05776542300556,0.));
#310=CARTESIAN_POINT('Origin',(44.2470805187714,-13.9422345769944,0.));
#311=CARTESIAN_POINT('',(44.2470805187714,16.0577654230056,10.));
#312=CARTESIAN_POINT('',(44.2470805187714,-13.9422345769944,10.));
#313=CARTESIAN_POINT('',(44.2470805187714,-6.44223457699443,10.));
#314=CARTESIAN_POINT('',(44.2470805187714,-13.9422345769944,0.));
#315=CARTESIAN_POINT('',(44.2470805187714,-13.9422345769944,0.));
#316=CARTESIAN_POINT('',(44.2470805187714,16.0577654230056,0.));
#317=CARTESIAN_POINT('',(44.2470805187714,16.0577654230056,0.));
#318=CARTESIAN_POINT('',(44.2470805187714,16.0577654230056,0.));
#319=CARTESIAN_POINT('Origin',(36.2470805187714,1.05776542300557,10.));
#320=CARTESIAN_POINT('',(40.2470805187714,16.0577654230056,10.));
#321=CARTESIAN_POINT('',(32.2470805187714,-13.9422345769944,10.));
#322=CARTESIAN_POINT('Origin',(11.2470805187714,1.05776542300557,0.6));
#323=CARTESIAN_POINT('',(-5.75291948122862,-13.9422345769944,0.6));
#324=CARTESIAN_POINT('',(-5.75291948122862,16.0577654230056,0.6));
#325=CARTESIAN_POINT('',(-5.75291948122862,-6.44223457699443,0.6));
#326=CARTESIAN_POINT('',(44.2470805187714,-13.9422345769944,0.6));
#327=CARTESIAN_POINT('',(-5.75291948122862,16.0577654230056,0.6));
#328=CARTESIAN_POINT('Origin',(-35.7529194812286,16.0577654230056,0.));
#329=CARTESIAN_POINT('',(-35.7529194812286,-13.9422345769944,0.));
#330=CARTESIAN_POINT('',(-35.7529194812286,16.0577654230056,0.));
#331=CARTESIAN_POINT('',(-35.7529194812286,-13.9422345769944,0.));
#332=CARTESIAN_POINT('',(-35.7529194812286,-13.9422345769944,10.));
#333=CARTESIAN_POINT('',(-35.7529194812286,-13.9422345769944,0.));
#334=CARTESIAN_POINT('',(-35.7529194812286,16.0577654230056,10.));
#335=CARTESIAN_POINT('',(-35.7529194812286,-13.9422345769944,10.));
#336=CARTESIAN_POINT('',(-35.7529194812286,16.0577654230056,0.));
#337=CARTESIAN_POINT('Origin',(-5.75291948122862,16.0577654230056,0.));
#338=CARTESIAN_POINT('',(-5.75291948122862,16.0577654230056,0.));
#339=CARTESIAN_POINT('',(-5.75291948122862,16.0577654230056,10.));
#340=CARTESIAN_POINT('',(-35.7529194812286,16.0577654230056,10.));
#341=CARTESIAN_POINT('',(-5.75291948122862,16.0577654230056,0.));
#342=CARTESIAN_POINT('Origin',(-5.75291948122862,-13.9422345769944,0.));
#343=CARTESIAN_POINT('',(-5.75291948122862,-13.9422345769944,10.));
#344=CARTESIAN_POINT('',(-5.75291948122862,16.0577654230056,10.));
#345=CARTESIAN_POINT('',(-5.75291948122862,-13.9422345769944,0.));
#346=CARTESIAN_POINT('Origin',(-35.7529194812286,-13.9422345769944,0.));
#347=CARTESIAN_POINT('',(-5.75291948122862,-13.9422345769944,0.));
#348=CARTESIAN_POINT('',(-5.75291948122862,-13.9422345769944,10.));
#349=CARTESIAN_POINT('Origin',(-20.7529194812286,1.05776542300557,10.));
#350=CARTESIAN_POINT('Origin',(-20.7529194812286,1.05776542300557,0.));
#351=UNCERTAINTY_MEASURE_WITH_UNIT(LENGTH_MEASURE(0.01),#355,
'DISTANCE_ACCURACY_VALUE',
'Maximum model space distance between geometric entities at asserted c
onnectivities');
#352=UNCERTAINTY_MEASURE_WITH_UNIT(LENGTH_MEASURE(0.01),#355,
'DISTANCE_ACCURACY_VALUE',
'Maximum model space distance between geometric entities at asserted c
onnectivities');
#353=(
GEOMETRIC_REPRESENTATION_CONTEXT(3)
GLOBAL_UNCERTAINTY_ASSIGNED_CONTEXT((#351))
GLOBAL_UNIT_ASSIGNED_CONTEXT((#355,#357,#358))
REPRESENTATION_CONTEXT('','3D')
);
#354=(
GEOMETRIC_REPRESENTATION_CONTEXT(3)
GLOBAL_UNCERTAINTY_ASSIGNED_CONTEXT((#352))
GLOBAL_UNIT_ASSIGNED_CONTEXT((#355,#357,#358))
REPRESENTATION_CONTEXT('','3D')
);
#355=(
LENGTH_UNIT()
NAMED_UNIT(*)
SI_UNIT(.MILLI.,.METRE.)
);
#356=(
LENGTH_UNIT()
NAMED_UNIT(*)
SI_UNIT($,.METRE.)
);
#357=(
NAMED_UNIT(*)
PLANE_ANGLE_UNIT()
SI_UNIT($,.RADIAN.)
);
#358=(
NAMED_UNIT(*)
SI_UNIT($,.STERADIAN.)
SOLID_ANGLE_UNIT()
);
#359=SHAPE_DEFINITION_REPRESENTATION(#360,#361);
#360=PRODUCT_DEFINITION_SHAPE('',$,#363);
#361=SHAPE_REPRESENTATION('',(#227),#353);
#362=PRODUCT_DEFINITION_CONTEXT('part definition',#367,'design');
#363=PRODUCT_DEFINITION('Thickness-10.0 mm','Thickness-10.0 mm v3',#364,
#362);
#364=PRODUCT_DEFINITION_FORMATION('',$,#369);
#365=PRODUCT_RELATED_PRODUCT_CATEGORY('Thickness-10.0 mm v3',
'Thickness-10.0 mm v3',(#369));
#366=APPLICATION_PROTOCOL_DEFINITION('international standard',
'automotive_design',2009,#367);
#367=APPLICATION_CONTEXT(
'Core Data for Automotive Mechanical Design Process');
#368=PRODUCT_CONTEXT('part definition',#367,'mechanical');
#369=PRODUCT('Thickness-10.0 mm','Thickness-10.0 mm v3',$,(#368));
#370=PRESENTATION_STYLE_ASSIGNMENT((#371));
#371=SURFACE_STYLE_USAGE(.BOTH.,#372);
#372=SURFACE_SIDE_STYLE('',(#373));
#373=SURFACE_STYLE_FILL_AREA(#374);
#374=FILL_AREA_STYLE('Acciaio - Satinato',(#375));
#375=FILL_AREA_STYLE_COLOUR('Acciaio - Satinato',#376);
#376=COLOUR_RGB('Acciaio - Satinato',0.627450980392157,0.627450980392157,
0.627450980392157);
ENDSEC;
END-ISO-10303-21;
